<svg id="svg" version="1.1" xmlns="http://www.w3.org/2000/svg" xmlns:xlink="http://www.w3.org/1999/xlink" width="400" height="390.5" viewBox="0, 0, 400,390.5"><g id="svgg"><path id="path0" d="M195.000 22.924 C 98.535 26.210,31.878 122.175,62.366 213.875 C 93.106 306.332,205.625 343.042,284.360 286.301 C 287.289 284.190,287.202 284.180,286.273 286.524 C 285.409 288.707,280.187 302.411,279.334 304.732 C 279.010 305.616,278.717 306.356,278.685 306.377 C 278.397 306.559,268.950 308.796,264.000 309.853 C 214.921 320.338,176.743 319.856,126.197 308.114 C 120.482 306.787,120.843 306.965,119.956 305.039 C 119.534 304.124,118.824 302.587,118.378 301.625 C 117.932 300.663,116.357 297.231,114.879 294.000 C 113.401 290.769,111.586 286.845,110.846 285.281 C 110.106 283.717,109.500 282.339,109.500 282.219 C 109.500 281.764,108.992 282.040,107.457 283.329 C 104.253 286.019,95.866 292.904,95.585 293.075 C 95.327 293.232,83.773 284.913,45.076 256.710 C 39.824 252.882,35.425 249.750,35.300 249.750 C 35.174 249.750,34.552 250.147,33.916 250.633 L 32.760 251.515 33.112 252.445 C 33.618 253.784,43.250 282.915,43.250 283.107 C 43.250 283.196,42.772 283.473,42.188 283.724 C 41.603 283.975,40.394 284.521,39.500 284.937 C 33.713 287.633,22.914 292.637,19.000 294.437 C 16.456 295.607,13.537 296.950,12.514 297.423 L 10.653 298.282 14.639 300.537 C 31.414 310.026,48.789 319.027,61.750 324.942 C 62.781 325.413,64.356 326.139,65.250 326.555 C 71.656 329.538,84.173 334.754,91.813 337.622 L 93.000 338.068 93.000 346.010 L 93.000 353.952 96.813 354.849 C 161.201 370.000,212.665 371.283,278.125 359.371 C 284.463 358.218,287.973 357.555,295.559 356.076 L 303.992 354.433 304.059 347.689 L 304.125 340.944 305.375 340.487 C 328.505 332.037,342.207 326.162,361.625 316.368 C 372.348 310.959,388.491 302.305,389.318 301.521 C 389.425 301.421,384.868 299.351,379.193 296.923 C 369.914 292.953,358.344 287.970,355.581 286.754 L 354.536 286.294 356.668 280.835 C 357.841 277.832,359.278 274.137,359.861 272.625 C 361.349 268.768,364.488 260.683,365.867 257.159 C 366.505 255.528,366.992 254.171,366.951 254.145 C 366.909 254.118,366.409 253.737,365.839 253.298 C 364.456 252.232,365.373 251.752,355.595 258.668 C 347.068 264.701,340.385 269.424,336.375 272.253 C 335.275 273.030,330.831 276.179,326.500 279.252 C 322.169 282.325,317.680 285.503,316.526 286.314 C 315.371 287.125,312.138 289.415,309.340 291.403 L 304.254 295.017 300.815 292.563 C 298.923 291.212,295.322 288.657,292.813 286.884 C 290.303 285.111,288.255 283.596,288.261 283.518 C 288.267 283.439,289.310 282.561,290.580 281.566 C 348.966 235.823,362.495 150.985,321.386 88.375 C 294.484 47.403,246.568 21.705,199.125 22.805 C 198.025 22.831,196.169 22.884,195.000 22.924 M206.300 26.253 C 274.535 29.443,329.295 78.723,340.472 147.000 C 344.890 173.985,339.456 208.154,326.996 231.750 C 291.107 299.709,215.242 327.648,144.750 298.865 C 89.659 276.371,53.864 217.461,58.625 157.123 C 59.501 146.008,62.826 129.428,65.470 122.980 C 65.607 122.647,66.246 120.912,66.892 119.125 C 86.074 66.001,136.677 28.849,193.375 26.263 C 199.357 25.990,200.656 25.989,206.300 26.253 M192.915 46.813 C 192.825 48.772,192.751 52.484,192.751 55.063 L 192.750 59.750 195.125 59.750 L 197.500 59.750 197.533 59.063 C 197.551 58.684,197.636 56.650,197.721 54.541 L 197.875 50.707 199.774 53.541 C 200.819 55.100,202.225 57.188,202.899 58.181 L 204.125 59.987 206.527 59.993 L 208.929 60.000 209.089 58.463 C 209.178 57.618,209.250 53.922,209.250 50.250 L 209.250 43.574 206.946 43.425 C 204.175 43.245,204.583 42.544,204.335 47.920 L 204.125 52.464 201.013 47.857 L 197.901 43.250 195.490 43.250 L 193.078 43.250 192.915 46.813 M179.125 44.888 C 178.162 45.076,177.023 45.293,176.593 45.371 C 175.957 45.485,175.779 45.663,175.641 46.318 C 174.922 49.752,172.505 62.630,172.558 62.747 C 172.595 62.828,173.768 62.683,175.165 62.426 L 177.706 61.959 177.874 60.505 L 178.043 59.052 179.459 58.880 C 180.238 58.785,181.583 58.561,182.448 58.382 L 184.020 58.057 184.665 59.341 C 185.020 60.047,185.336 60.655,185.368 60.692 C 185.399 60.728,185.976 60.645,186.650 60.505 C 187.324 60.366,188.517 60.132,189.301 59.986 L 190.728 59.719 187.279 54.047 C 181.919 45.234,181.446 44.498,181.151 44.523 C 180.999 44.536,180.088 44.701,179.125 44.888 M218.595 47.063 C 217.806 48.334,216.689 50.163,216.113 51.125 C 215.536 52.087,214.101 54.450,212.922 56.375 L 210.779 59.875 212.952 60.298 C 216.101 60.910,216.036 60.924,216.737 59.496 C 217.073 58.811,217.354 58.251,217.362 58.252 C 221.618 58.782,223.500 59.351,223.500 60.109 C 223.500 62.045,223.580 62.116,226.304 62.585 C 229.248 63.093,229.103 63.159,228.781 61.462 C 227.528 54.855,225.726 45.648,225.681 45.624 C 225.585 45.574,220.384 44.739,220.203 44.745 C 220.108 44.748,219.385 45.791,218.595 47.063 M160.938 48.932 C 157.484 50.263,157.740 49.563,158.515 55.556 C 159.128 60.295,159.101 60.701,158.258 59.497 C 157.923 59.018,156.550 57.138,155.208 55.320 L 152.768 52.016 151.072 52.656 C 150.138 53.008,148.869 53.467,148.250 53.676 C 146.072 54.412,145.977 53.665,149.316 62.057 C 150.972 66.219,152.365 69.671,152.412 69.727 C 152.572 69.921,156.061 68.624,156.176 68.328 C 156.240 68.164,155.319 65.593,154.130 62.615 C 152.940 59.636,152.012 57.155,152.066 57.101 C 152.141 57.025,156.805 63.279,159.313 66.816 C 159.585 67.200,162.253 66.554,163.188 65.877 C 163.248 65.834,162.192 56.686,161.846 54.250 C 161.603 52.544,161.806 52.950,164.226 59.015 C 165.458 62.100,166.557 64.602,166.670 64.573 C 167.018 64.485,170.336 63.248,170.393 63.185 C 170.423 63.152,169.163 59.919,167.593 56.000 C 166.022 52.081,164.672 48.622,164.591 48.313 C 164.405 47.593,164.417 47.591,160.938 48.932 M180.949 52.139 C 181.888 53.994,182.179 54.789,181.949 54.867 C 181.366 55.065,178.668 55.501,178.578 55.411 C 178.530 55.363,178.661 54.106,178.870 52.618 C 179.079 51.130,179.250 49.820,179.250 49.706 C 179.250 49.064,179.772 49.811,180.949 52.139 M222.586 52.938 L 222.912 55.500 222.343 55.500 C 221.531 55.500,219.250 54.988,219.250 54.805 C 219.250 53.990,222.099 49.236,222.192 49.896 C 222.229 50.160,222.407 51.528,222.586 52.938 M237.424 50.243 C 232.097 52.324,230.149 60.340,234.028 64.219 C 236.446 66.637,241.532 67.829,245.786 66.975 L 247.156 66.700 248.206 63.537 C 248.783 61.798,249.254 60.256,249.253 60.110 C 249.250 59.878,241.753 57.348,241.661 57.548 C 241.641 57.590,241.386 58.311,241.094 59.148 L 240.562 60.672 242.277 61.224 L 243.991 61.776 243.666 62.575 C 242.995 64.223,238.696 63.617,237.491 61.705 C 236.454 60.059,237.434 55.942,239.220 54.439 C 241.099 52.858,244.412 53.644,244.882 55.781 C 244.969 56.177,245.059 56.504,245.082 56.509 C 245.106 56.514,246.234 56.664,247.590 56.843 L 250.055 57.168 249.944 55.825 C 249.606 51.749,242.116 48.409,237.424 50.243 M252.898 63.480 C 250.892 67.456,249.250 70.780,249.250 70.866 C 249.250 71.057,253.314 73.000,253.714 73.000 C 253.946 73.000,261.250 58.819,261.250 58.368 C 261.250 58.184,257.230 56.250,256.849 56.250 C 256.682 56.250,254.904 59.503,252.898 63.480 M127.252 65.138 C 124.297 67.132,121.726 68.917,121.538 69.105 C 121.185 69.458,121.268 69.588,125.325 75.125 C 125.929 75.950,127.422 78.003,128.643 79.688 C 131.271 83.316,130.589 83.174,134.041 80.809 C 135.600 79.742,138.190 77.982,139.798 76.899 L 142.720 74.929 141.726 73.465 C 140.500 71.660,141.006 71.565,136.870 74.374 C 132.822 77.125,133.110 77.050,132.063 75.626 C 130.971 74.142,130.856 74.329,134.313 71.995 C 135.997 70.858,137.474 69.839,137.596 69.730 C 137.793 69.554,136.143 67.000,135.832 67.000 C 135.731 67.000,131.486 69.825,129.536 71.189 C 128.963 71.590,127.266 69.493,127.817 69.065 C 127.986 68.933,129.588 67.833,131.375 66.621 C 133.162 65.409,134.669 64.383,134.723 64.340 C 134.811 64.271,132.808 61.492,132.679 61.506 C 132.649 61.509,130.207 63.144,127.252 65.138 M266.946 61.938 C 266.625 62.306,259.805 71.686,258.061 74.157 L 257.509 74.940 259.227 76.092 C 260.171 76.726,261.102 77.305,261.294 77.378 C 261.528 77.468,262.463 76.370,264.112 74.069 C 265.470 72.175,266.681 70.513,266.803 70.375 C 266.934 70.228,267.009 72.448,266.986 75.748 L 266.945 81.372 268.910 82.680 C 269.991 83.399,270.893 83.991,270.914 83.994 C 270.936 83.997,271.339 83.466,271.811 82.813 C 272.282 82.159,274.492 79.109,276.722 76.033 C 278.951 72.958,280.741 70.415,280.700 70.383 C 280.020 69.856,276.690 67.730,276.639 67.791 C 276.600 67.837,275.400 69.501,273.972 71.489 L 271.375 75.102 271.250 69.516 L 271.125 63.929 269.375 62.715 C 267.381 61.330,267.455 61.354,266.946 61.938 M194.625 70.898 C 194.075 70.952,192.331 71.115,190.750 71.260 C 129.195 76.883,88.356 139.833,108.010 198.798 C 125.674 251.791,184.285 279.056,236.250 258.453 C 260.717 248.753,280.889 228.679,290.465 204.500 C 314.293 144.337,275.190 78.851,210.966 71.362 C 207.818 70.995,196.807 70.682,194.625 70.898 M211.875 74.730 C 230.002 77.162,245.891 83.953,259.659 95.153 C 259.846 95.305,260.000 95.558,260.000 95.715 C 260.000 95.872,260.119 96.000,260.265 96.000 C 261.059 96.000,268.232 102.850,271.783 107.000 C 274.811 110.538,279.973 117.738,280.527 119.195 C 280.667 119.563,280.870 119.923,280.977 119.995 C 282.573 121.053,289.697 137.505,290.723 142.502 C 290.850 143.120,291.197 144.467,291.494 145.497 C 292.409 148.665,293.907 157.594,293.970 160.250 C 293.975 160.456,294.052 163.269,294.142 166.500 C 294.250 170.357,294.207 173.320,294.016 175.125 C 293.856 176.637,293.683 178.381,293.630 179.000 C 292.885 187.795,289.106 200.787,284.976 208.759 C 284.439 209.795,284.000 210.766,284.000 210.916 C 284.000 211.066,283.840 211.322,283.644 211.484 C 283.448 211.647,282.806 212.757,282.217 213.952 C 281.208 216.000,279.445 218.946,279.053 219.241 C 278.955 219.315,278.656 219.769,278.389 220.250 C 271.632 232.416,252.677 248.230,237.360 254.481 C 236.543 254.814,235.425 255.276,234.875 255.508 C 232.793 256.385,232.337 256.557,230.247 257.251 C 208.632 264.432,184.307 263.544,164.000 254.833 C 161.183 253.625,153.646 249.896,153.166 249.473 C 153.006 249.332,152.267 248.859,151.523 248.421 C 148.946 246.904,148.614 246.688,146.313 245.044 C 145.041 244.136,144.000 243.304,144.000 243.196 C 144.000 243.088,143.872 243.000,143.716 243.000 C 142.497 243.000,130.996 232.004,127.188 227.198 C 126.672 226.547,126.250 225.967,126.250 225.909 C 126.250 225.851,125.921 225.451,125.519 225.020 C 124.849 224.303,122.009 220.211,121.775 219.625 C 121.720 219.488,121.602 219.319,121.513 219.250 C 121.239 219.039,120.344 217.689,119.605 216.375 C 119.219 215.688,118.647 214.675,118.334 214.125 C 116.689 211.235,116.751 211.455,116.988 209.340 C 117.221 207.269,117.146 206.528,116.869 208.162 C 116.463 210.564,116.388 210.549,115.083 207.811 C 111.930 201.192,108.000 188.815,108.000 185.501 C 108.000 184.868,107.903 184.243,107.784 184.112 C 107.540 183.846,107.158 181.459,106.703 177.375 C 106.313 173.865,106.319 162.499,106.713 158.750 C 107.348 152.716,108.323 147.736,108.846 147.855 C 108.999 147.890,109.041 147.871,108.938 147.813 C 107.728 147.137,112.875 132.139,116.802 124.896 C 117.392 123.808,118.303 122.121,118.826 121.146 C 127.648 104.712,146.146 88.446,164.250 81.204 C 165.281 80.791,166.320 80.351,166.559 80.227 C 166.798 80.102,167.220 80.000,167.497 80.000 C 167.773 80.000,168.000 79.888,168.000 79.750 C 168.000 79.612,168.227 79.500,168.503 79.500 C 168.780 79.500,169.202 79.394,169.441 79.263 C 172.665 77.506,183.871 75.184,194.125 74.150 C 196.848 73.875,208.289 74.249,211.875 74.730 M113.515 76.188 C 111.762 77.090,108.762 80.041,107.987 81.625 C 104.811 88.114,113.287 96.203,119.803 92.902 C 123.266 91.147,127.090 86.060,126.700 83.725 C 126.615 83.217,122.329 78.500,121.953 78.500 C 121.732 78.500,116.000 83.490,116.000 83.682 C 116.000 83.926,118.112 86.000,118.360 86.000 C 118.523 86.000,118.987 85.653,119.391 85.228 C 121.166 83.363,122.705 84.128,121.596 86.325 C 119.788 89.910,116.600 90.167,113.575 86.970 C 110.707 83.939,112.142 79.590,115.845 80.093 L 116.875 80.233 118.322 78.304 L 119.770 76.375 118.822 75.944 C 117.319 75.260,115.120 75.361,113.515 76.188 M282.071 78.373 C 273.693 82.565,275.233 92.831,284.676 95.748 C 287.077 96.489,287.113 96.476,289.875 93.879 L 292.375 91.527 289.629 88.764 C 286.438 85.552,286.859 85.719,285.365 87.071 L 284.182 88.143 285.341 89.353 C 286.661 90.730,286.673 90.766,286.017 91.360 C 283.915 93.262,280.073 88.547,281.479 85.791 C 283.934 80.979,290.996 80.848,290.386 85.625 L 290.258 86.625 292.197 87.938 C 294.518 89.508,294.350 89.489,294.848 88.245 C 295.813 85.833,294.996 83.444,292.278 80.726 C 288.918 77.367,285.609 76.604,282.071 78.373 M96.368 94.775 C 94.086 97.824,92.310 100.398,92.422 100.495 C 93.830 101.714,106.092 110.006,106.248 109.844 C 106.671 109.404,114.494 98.871,114.488 98.750 C 114.479 98.582,111.769 96.750,111.529 96.750 C 111.425 96.750,110.233 98.241,108.879 100.063 C 107.525 101.884,106.339 103.467,106.243 103.579 C 106.147 103.690,105.436 103.339,104.664 102.799 L 103.260 101.815 105.640 98.650 C 106.949 96.909,107.954 95.378,107.872 95.246 C 107.704 94.973,105.610 93.500,105.391 93.500 C 105.312 93.500,104.223 94.878,102.970 96.563 C 101.717 98.247,100.655 99.666,100.609 99.716 C 100.541 99.791,99.530 99.213,98.417 98.462 C 98.284 98.373,99.363 96.717,100.816 94.782 L 103.456 91.265 102.291 90.432 C 101.650 89.974,100.988 89.516,100.821 89.415 C 100.619 89.293,99.129 91.085,96.368 94.775 M302.000 100.734 C 295.849 102.612,293.055 107.569,295.400 112.444 C 297.217 116.221,299.143 117.617,302.542 117.622 C 305.390 117.626,305.268 117.896,304.223 113.921 L 303.972 112.968 302.631 113.135 C 300.509 113.400,298.750 111.876,298.750 109.772 C 298.750 107.959,303.101 105.055,305.426 105.318 C 307.698 105.574,309.071 108.217,307.842 109.971 C 307.442 110.542,307.468 110.589,309.077 112.198 L 310.721 113.841 311.230 113.233 C 315.640 107.960,308.776 98.665,302.000 100.734 M99.113 113.424 C 98.157 115.279,97.250 116.848,97.097 116.912 C 96.943 116.975,94.315 115.784,91.255 114.264 C 88.195 112.744,85.658 111.500,85.616 111.500 C 85.532 111.500,83.250 115.749,83.250 115.907 C 83.250 116.156,98.352 123.495,98.505 123.321 C 98.600 123.213,99.383 121.775,100.244 120.125 C 101.106 118.475,102.428 115.965,103.183 114.548 C 103.937 113.131,104.507 111.924,104.449 111.866 C 104.391 111.808,103.788 111.464,103.109 111.102 C 100.740 109.838,101.057 109.654,99.113 113.424 M310.625 118.244 C 303.368 119.826,300.983 126.562,305.521 132.663 C 307.928 135.899,313.003 136.452,317.250 133.940 C 325.382 129.130,319.930 116.214,310.625 118.244 M315.566 123.551 C 318.656 125.734,316.697 129.443,311.886 130.519 C 307.257 131.555,305.548 126.157,309.813 123.971 C 312.193 122.750,314.223 122.602,315.566 123.551 M93.274 125.061 C 93.146 125.398,92.580 127.009,92.015 128.642 C 91.450 130.275,90.888 131.712,90.766 131.834 C 90.635 131.965,88.040 131.222,84.508 130.044 C 80.444 128.688,78.443 128.127,78.381 128.328 C 78.330 128.491,77.952 129.560,77.540 130.703 C 77.022 132.143,76.882 132.816,77.083 132.891 C 77.244 132.952,80.886 134.172,85.178 135.603 L 92.981 138.205 93.502 136.790 C 93.789 136.012,94.182 134.925,94.377 134.375 C 97.813 124.652,97.613 125.921,95.813 125.300 C 95.022 125.027,94.180 124.724,93.941 124.627 C 93.622 124.496,93.445 124.611,93.274 125.061 M321.750 138.147 C 317.156 139.020,313.310 139.740,310.691 140.217 C 309.352 140.460,308.193 140.723,308.116 140.801 C 307.943 140.974,308.489 144.301,308.734 144.569 C 308.904 144.753,310.138 144.550,317.704 143.092 C 319.536 142.739,321.076 142.493,321.129 142.545 C 321.181 142.597,318.546 143.863,315.275 145.359 L 309.326 148.077 309.704 149.851 C 309.912 150.827,310.092 151.643,310.104 151.665 C 310.115 151.687,313.050 151.893,316.625 152.123 C 323.481 152.565,323.875 152.618,322.338 152.886 C 319.684 153.349,310.880 155.037,310.823 155.094 C 310.787 155.130,310.922 155.939,311.124 156.892 C 311.326 157.845,311.493 158.719,311.496 158.834 C 311.501 159.070,312.305 158.959,316.625 158.130 C 318.275 157.813,321.566 157.190,323.938 156.744 C 327.419 156.090,328.249 155.856,328.243 155.529 C 328.239 155.307,327.979 153.831,327.665 152.250 L 327.093 149.375 322.359 149.084 C 319.755 148.923,317.344 148.776,317.000 148.756 C 316.296 148.715,317.555 148.041,322.916 145.591 C 324.612 144.816,326.000 144.150,326.000 144.111 C 326.000 143.915,324.720 137.641,324.676 137.622 C 324.648 137.610,323.331 137.846,321.750 138.147 M79.125 139.583 C 72.982 141.626,71.132 150.775,76.103 154.532 C 78.648 156.456,83.499 157.187,86.095 156.039 C 91.633 153.590,92.955 144.881,88.326 141.351 C 86.174 139.709,81.466 138.805,79.125 139.583 M83.125 144.592 C 86.654 145.356,87.909 147.063,86.795 149.582 C 85.072 153.476,76.676 151.390,77.376 147.241 C 77.800 144.732,79.708 143.853,83.125 144.592 M82.704 162.313 L 82.082 164.375 83.229 164.901 C 86.083 166.211,86.295 169.300,83.626 170.693 C 82.426 171.319,78.375 171.271,77.250 170.616 C 74.990 169.303,75.003 166.287,77.275 165.112 L 77.925 164.776 77.380 162.714 C 76.776 160.431,76.632 160.290,75.502 160.874 C 72.215 162.574,70.835 166.881,72.184 171.228 C 74.284 177.995,86.919 177.891,88.896 171.089 C 90.187 166.649,88.828 162.424,85.622 160.906 C 83.497 159.900,83.419 159.937,82.704 162.313 M311.250 164.670 L 311.250 166.750 316.813 166.775 C 324.396 166.809,324.550 166.911,318.977 168.209 C 316.446 168.798,313.616 169.467,312.688 169.696 L 311.000 170.111 311.000 171.911 L 311.000 173.711 311.813 173.967 C 312.259 174.108,315.044 174.861,318.000 175.639 C 320.956 176.418,323.431 177.107,323.499 177.172 C 323.567 177.237,320.783 177.253,317.311 177.207 L 311.000 177.125 311.000 179.148 L 311.000 181.170 316.290 181.335 C 319.200 181.426,323.025 181.500,324.790 181.500 L 328.000 181.500 328.050 179.125 C 328.154 174.169,329.145 175.091,321.563 173.089 C 318.350 172.241,317.229 171.759,318.438 171.745 C 318.678 171.743,320.956 171.253,323.500 170.658 L 328.125 169.575 328.250 166.255 C 328.329 164.149,328.284 162.907,328.125 162.859 C 327.988 162.818,324.134 162.740,319.563 162.687 L 311.250 162.591 311.250 164.670 M309.357 187.189 C 308.850 190.006,308.676 189.805,312.098 190.353 C 313.488 190.575,317.124 191.186,320.179 191.710 L 325.733 192.663 326.003 191.269 C 326.152 190.502,326.369 189.389,326.485 188.794 C 326.732 187.534,326.930 187.652,323.750 187.157 C 322.444 186.953,319.012 186.386,316.125 185.897 C 313.238 185.408,310.629 184.966,310.329 184.916 C 309.823 184.832,309.751 184.999,309.357 187.189 M88.149 186.901 C 87.199 187.090,86.377 187.289,86.323 187.344 C 86.236 187.431,86.973 191.792,87.098 191.927 C 87.164 191.998,91.551 191.282,91.649 191.184 C 91.693 191.141,91.537 190.069,91.304 188.803 C 90.822 186.188,91.049 186.325,88.149 186.901 M74.500 195.403 C 74.500 195.546,76.246 200.079,76.335 200.168 C 76.400 200.233,79.243 200.170,82.654 200.029 C 88.189 199.799,89.342 199.808,88.979 200.077 C 88.922 200.120,86.593 201.773,83.804 203.750 C 80.011 206.439,78.772 207.444,78.888 207.735 C 78.974 207.950,79.382 209.053,79.795 210.188 C 80.293 211.553,80.645 212.191,80.836 212.076 C 80.995 211.979,83.713 209.814,86.876 207.263 C 90.038 204.712,93.096 202.256,93.671 201.805 L 94.716 200.985 94.258 199.805 C 94.007 199.156,93.580 198.006,93.311 197.250 L 92.821 195.875 87.598 195.708 C 82.106 195.531,74.500 195.355,74.500 195.403 M320.013 198.682 C 319.558 200.026,319.154 201.161,319.116 201.206 C 319.055 201.276,314.813 199.974,309.007 198.102 C 307.980 197.771,307.061 197.500,306.967 197.500 C 306.700 197.500,305.227 202.082,305.438 202.256 C 305.541 202.340,308.269 203.231,311.500 204.236 C 314.731 205.240,317.403 206.084,317.436 206.113 C 317.470 206.141,317.160 207.161,316.749 208.379 C 316.337 209.597,316.000 210.722,316.000 210.878 C 316.000 211.154,319.654 212.442,319.839 212.231 C 319.890 212.173,320.976 208.975,322.253 205.125 C 323.529 201.275,324.622 197.992,324.682 197.829 C 324.749 197.647,324.133 197.328,323.083 197.000 C 322.144 196.707,321.255 196.415,321.108 196.353 C 320.956 196.288,320.484 197.290,320.013 198.682 M282.155 200.688 C 282.391 201.669,282.500 201.702,282.500 200.792 C 282.500 200.356,282.385 200.000,282.245 200.000 C 282.094 200.000,282.057 200.279,282.155 200.688 M117.750 202.219 C 117.750 202.477,117.680 203.039,117.594 203.469 C 117.489 203.992,117.535 204.250,117.734 204.250 C 117.896 204.250,117.977 204.165,117.912 204.060 C 117.848 203.956,117.882 203.394,117.989 202.810 C 118.096 202.227,118.085 201.750,117.966 201.750 C 117.847 201.750,117.750 201.961,117.750 202.219 M282.439 202.375 C 282.364 202.766,282.434 203.000,282.625 203.000 C 282.816 203.000,282.886 202.766,282.811 202.375 C 282.745 202.031,282.662 201.750,282.625 201.750 C 282.588 201.750,282.505 202.031,282.439 202.375 M283.376 206.750 C 283.440 207.094,283.495 207.797,283.497 208.313 C 283.498 208.828,283.613 209.250,283.750 209.250 C 284.093 209.250,284.032 208.325,283.610 207.125 C 283.417 206.575,283.311 206.406,283.376 206.750 M95.384 209.176 C 94.288 209.643,93.344 210.073,93.284 210.133 C 93.191 210.226,94.899 214.204,95.148 214.474 C 95.241 214.574,98.991 213.032,99.290 212.770 C 99.381 212.690,98.987 211.658,98.415 210.476 L 97.375 208.327 95.384 209.176 M299.709 215.209 C 299.119 216.400,298.603 217.439,298.562 217.517 C 298.522 217.595,301.079 218.878,304.244 220.367 C 307.410 221.856,310.000 223.172,310.000 223.292 C 310.000 223.412,309.502 224.502,308.892 225.715 L 307.785 227.921 309.489 228.710 C 310.427 229.145,311.292 229.500,311.412 229.500 C 311.627 229.500,318.597 215.759,318.451 215.622 C 318.271 215.453,315.142 214.000,314.958 214.000 C 314.846 214.000,314.247 215.012,313.625 216.250 C 313.003 217.488,312.440 218.500,312.372 218.500 C 312.218 218.500,305.304 215.276,302.706 213.993 L 300.782 213.043 299.709 215.209 M97.489 217.047 C 96.189 218.584,93.596 221.636,91.727 223.831 L 88.329 227.821 89.704 230.161 C 91.298 232.874,90.937 232.754,95.280 232.018 C 96.845 231.753,100.037 231.240,102.375 230.878 C 104.713 230.517,107.207 230.109,107.917 229.972 L 109.210 229.723 108.077 227.799 C 106.489 225.100,106.685 225.246,105.178 225.647 C 103.660 226.051,103.891 226.236,101.984 223.090 C 100.504 220.651,100.518 220.828,101.716 219.659 L 102.681 218.716 101.453 216.670 C 100.777 215.545,100.140 214.541,100.039 214.439 C 99.937 214.337,98.790 215.511,97.489 217.047 M98.982 225.093 C 100.020 226.908,100.125 226.795,96.750 227.516 C 95.100 227.868,93.750 228.096,93.750 228.021 C 93.750 227.819,97.836 223.750,98.039 223.750 C 98.135 223.750,98.559 224.354,98.982 225.093 M291.625 228.159 C 290.113 230.291,288.281 232.865,287.554 233.878 L 286.234 235.720 287.728 236.735 C 288.550 237.293,289.262 237.750,289.311 237.750 C 289.360 237.750,290.571 236.133,292.002 234.157 L 294.605 230.565 295.928 231.443 C 297.555 232.524,297.559 232.439,295.765 234.875 C 294.955 235.975,293.935 237.362,293.499 237.957 C 293.062 238.552,292.743 239.065,292.790 239.096 C 292.837 239.128,293.460 239.565,294.174 240.067 L 295.473 240.980 297.448 238.303 C 298.534 236.830,299.579 235.372,299.771 235.063 C 300.213 234.351,300.285 234.356,301.488 235.188 C 302.701 236.026,302.806 235.730,299.875 239.738 C 298.546 241.555,297.496 243.072,297.542 243.109 C 298.437 243.831,300.402 244.946,300.536 244.809 C 301.905 243.403,308.434 233.831,308.182 233.599 C 307.853 233.295,294.501 224.239,294.422 224.266 C 294.396 224.275,293.137 226.027,291.625 228.159 M108.662 232.258 C 106.669 233.768,106.693 233.503,108.353 235.586 C 109.993 237.644,109.707 237.601,111.768 236.107 C 113.830 234.614,113.807 234.872,112.071 232.749 C 110.370 230.666,110.702 230.714,108.662 232.258 M282.621 239.305 C 281.955 240.031,279.775 242.301,277.778 244.349 L 274.146 248.074 275.465 249.287 C 277.137 250.824,276.704 251.003,280.110 247.375 C 283.496 243.769,283.050 243.970,284.566 245.366 L 285.757 246.463 282.945 249.388 L 280.133 252.313 281.369 253.432 L 282.605 254.551 285.468 251.632 L 288.331 248.713 289.282 249.669 L 290.234 250.625 287.248 253.750 L 284.262 256.875 285.568 258.064 L 286.875 259.254 291.674 254.314 C 294.314 251.598,296.451 249.304,296.424 249.218 C 296.364 249.027,284.279 238.154,284.017 238.055 C 283.915 238.017,283.287 238.579,282.621 239.305 M112.426 239.861 C 108.810 241.150,105.508 245.183,105.502 248.315 C 105.498 250.789,106.113 251.665,112.626 258.465 L 113.191 259.055 119.495 253.369 L 125.799 247.684 123.587 245.431 C 119.631 241.402,118.893 240.743,117.638 240.117 C 116.215 239.407,114.002 239.298,112.426 239.861 M116.829 244.280 C 117.423 244.584,119.250 246.259,119.250 246.500 C 119.250 246.582,117.713 248.044,115.835 249.749 L 112.421 252.850 111.467 251.776 C 109.745 249.835,109.907 248.370,112.081 246.241 C 114.033 244.330,115.635 243.668,116.829 244.280 M42.000 258.497 C 43.581 259.646,45.438 260.997,46.125 261.500 C 49.414 263.908,56.396 268.986,64.000 274.500 C 68.606 277.841,72.938 280.992,73.625 281.503 C 79.580 285.932,95.270 297.250,95.455 297.250 C 95.583 297.250,98.419 295.000,101.756 292.250 C 105.093 289.500,107.905 287.250,108.004 287.250 C 108.103 287.250,109.857 290.878,111.901 295.313 C 113.946 299.747,115.861 303.881,116.158 304.500 C 116.455 305.119,116.610 305.658,116.502 305.699 C 116.222 305.805,106.879 303.340,98.125 300.851 C 95.513 300.108,93.291 299.500,93.188 299.500 C 93.084 299.500,93.000 300.131,93.000 300.902 C 93.000 302.136,92.948 302.283,92.563 302.131 C 92.322 302.037,90.944 301.509,89.500 300.958 C 88.056 300.407,84.925 299.170,82.541 298.208 C 80.157 297.246,78.180 296.497,78.148 296.542 C 77.592 297.313,77.008 299.351,77.291 299.529 C 77.711 299.792,87.610 303.721,90.625 304.820 L 92.875 305.641 92.952 306.695 C 92.994 307.275,92.919 307.750,92.786 307.750 C 92.155 307.750,76.890 301.852,75.027 300.889 L 74.232 300.478 73.616 301.871 C 72.830 303.649,72.814 303.570,74.063 304.052 C 74.647 304.277,77.037 305.239,79.375 306.189 C 81.713 307.139,85.734 308.687,88.313 309.627 L 93.000 311.337 93.000 312.294 C 93.000 312.820,92.915 313.250,92.812 313.250 C 92.121 313.250,78.198 307.730,73.724 305.682 L 71.824 304.812 71.147 306.191 C 70.769 306.962,70.566 307.666,70.686 307.786 C 71.224 308.324,83.150 313.227,90.063 315.753 L 93.000 316.826 93.000 317.913 C 93.000 318.511,92.947 319.000,92.883 319.000 C 92.225 319.000,79.057 313.820,72.664 311.046 L 69.203 309.544 68.588 310.934 C 68.250 311.698,68.064 312.411,68.174 312.517 C 68.738 313.061,81.347 318.267,88.000 320.702 C 90.269 321.532,92.322 322.289,92.563 322.383 C 93.318 322.678,93.196 325.343,92.438 325.113 C 91.544 324.842,81.453 320.835,79.969 320.163 C 74.141 317.519,72.554 316.778,70.230 315.614 L 67.585 314.289 66.918 315.650 C 66.550 316.399,66.250 317.073,66.250 317.149 C 66.250 317.350,74.966 321.513,79.213 323.340 C 82.662 324.824,85.842 326.100,89.875 327.619 C 90.838 327.982,91.934 328.398,92.313 328.545 L 93.000 328.811 93.000 331.672 C 93.000 334.524,92.998 334.533,92.438 334.361 C 88.237 333.069,68.974 324.837,58.500 319.857 C 41.400 311.727,16.274 298.250,18.218 298.250 C 18.338 298.250,22.472 296.382,27.405 294.100 C 32.339 291.817,37.725 289.329,39.375 288.572 C 43.682 286.594,47.095 284.989,47.184 284.899 C 47.243 284.840,38.168 257.161,37.544 255.500 C 37.456 255.265,37.725 255.365,38.264 255.767 C 38.738 256.120,40.419 257.349,42.000 258.497 M255.399 259.126 C 251.634 261.730,251.018 262.997,250.782 268.625 L 250.625 272.375 247.306 273.223 C 245.481 273.690,243.908 273.992,243.811 273.894 C 243.304 273.387,243.688 269.090,244.438 266.875 C 245.360 264.156,245.397 264.212,243.509 265.494 C 240.791 267.340,239.902 269.122,239.538 273.452 C 239.279 276.537,239.577 276.235,235.807 277.219 C 234.119 277.660,232.572 278.084,232.369 278.162 C 231.369 278.546,232.230 274.452,233.829 271.222 L 234.895 269.069 234.010 269.438 C 229.511 271.313,228.596 272.526,227.981 277.426 C 227.603 280.436,227.946 280.121,224.375 280.736 C 222.725 281.020,221.122 281.321,220.813 281.405 C 219.700 281.708,220.817 278.562,223.130 274.878 C 224.688 272.396,224.672 272.385,221.810 273.929 C 218.121 275.920,216.838 277.651,215.613 282.294 C 215.169 283.980,215.811 283.697,207.851 285.709 L 200.827 287.484 196.601 286.607 C 194.277 286.125,191.250 285.499,189.875 285.216 C 186.274 284.475,186.488 284.637,185.544 281.940 C 184.097 277.800,183.189 276.787,179.224 274.889 C 176.365 273.520,176.411 273.460,178.226 276.173 C 180.514 279.594,181.981 283.136,180.810 282.412 C 180.705 282.347,179.102 282.103,177.247 281.869 C 173.239 281.363,173.856 281.825,173.400 278.988 C 172.663 274.412,171.913 273.285,168.558 271.717 C 165.853 270.452,165.871 270.440,167.157 272.688 C 168.930 275.785,170.001 279.941,168.955 279.663 C 168.636 279.579,167.025 279.212,165.375 278.849 C 161.722 278.045,162.032 278.344,161.605 275.217 C 161.017 270.909,160.154 269.407,157.147 267.456 C 155.313 266.267,155.294 266.289,156.229 268.538 C 157.521 271.649,158.008 276.003,157.063 275.997 C 156.405 275.993,150.726 274.809,150.558 274.641 C 150.478 274.561,150.324 273.189,150.217 271.592 C 149.837 265.925,149.161 264.508,145.738 262.200 C 143.108 260.426,143.134 260.424,143.989 262.313 C 145.425 265.481,145.789 266.956,145.782 269.592 C 145.774 272.689,145.880 272.641,143.570 270.587 C 137.922 265.564,135.219 264.158,130.563 263.824 C 128.134 263.649,128.157 263.590,129.712 266.017 C 131.942 269.497,134.092 271.075,139.550 273.241 C 141.297 273.933,142.866 274.500,143.038 274.500 C 143.896 274.500,142.665 275.004,140.948 275.356 C 138.092 275.940,134.736 275.854,131.625 275.116 C 130.910 274.946,130.938 275.003,132.250 276.357 C 135.748 279.965,140.765 280.515,146.375 277.903 L 148.125 277.088 151.375 277.943 C 155.292 278.973,155.285 278.967,154.038 280.034 C 152.267 281.551,150.921 281.869,146.500 281.816 L 142.625 281.769 143.500 282.524 C 148.275 286.643,154.002 286.715,159.238 282.721 L 160.601 281.681 164.363 282.093 C 166.432 282.320,168.283 282.504,168.476 282.503 C 169.037 282.498,168.076 283.445,166.435 284.514 C 164.581 285.723,162.307 286.399,158.875 286.761 C 157.363 286.921,156.101 287.073,156.073 287.099 C 156.044 287.125,156.606 287.532,157.323 288.004 C 161.813 290.961,166.615 290.393,171.405 286.338 L 172.935 285.042 176.469 285.231 C 180.707 285.458,180.635 285.408,179.004 286.996 C 177.026 288.922,172.853 290.469,169.528 290.508 C 167.667 290.529,172.324 292.020,174.750 292.179 C 177.807 292.380,180.614 291.181,183.750 288.334 L 185.125 287.086 187.250 287.502 C 188.419 287.732,191.999 288.410,195.206 289.010 L 201.038 290.101 202.706 289.686 C 203.624 289.458,205.894 288.915,207.750 288.479 C 209.606 288.044,212.363 287.376,213.875 286.996 L 216.625 286.304 218.250 287.609 C 222.963 291.395,226.636 291.968,231.657 289.698 L 232.875 289.148 231.375 288.952 C 225.964 288.244,224.541 287.749,222.617 285.906 C 221.026 284.381,220.815 284.503,225.930 283.991 L 228.736 283.711 230.180 284.893 C 234.990 288.830,240.811 289.071,245.000 285.508 L 245.875 284.763 243.375 284.752 C 239.347 284.735,235.745 283.688,233.625 281.920 C 232.645 281.103,232.535 281.154,236.921 280.394 L 240.718 279.736 242.403 280.867 C 247.549 284.317,252.638 284.173,257.245 280.445 C 259.159 278.897,259.222 278.936,255.404 279.296 C 250.994 279.712,248.294 279.094,246.669 277.299 C 246.218 276.800,246.244 276.786,249.428 275.773 C 253.223 274.566,252.999 274.581,254.964 275.380 C 260.711 277.715,265.346 276.997,268.876 273.223 C 270.288 271.713,270.244 271.623,268.348 272.137 C 265.499 272.910,258.000 272.819,258.000 272.011 C 258.000 271.905,258.534 271.618,259.188 271.373 C 263.878 269.614,268.002 266.991,269.709 264.680 C 270.916 263.047,272.355 260.250,271.989 260.250 C 267.300 260.250,263.536 262.102,258.272 267.000 C 255.237 269.824,255.359 269.763,255.162 268.572 C 254.699 265.768,255.190 262.941,256.880 258.688 C 257.128 258.062,256.793 258.161,255.399 259.126 M361.377 259.813 C 361.046 260.672,360.270 262.669,359.652 264.250 C 352.788 281.816,350.420 288.004,350.526 288.103 C 350.634 288.204,378.545 300.225,380.687 301.093 C 382.414 301.793,382.476 301.708,378.813 303.718 C 359.836 314.131,339.729 323.701,321.625 330.935 C 315.114 333.537,304.416 337.459,304.188 337.328 C 304.084 337.269,304.000 335.724,304.000 333.894 L 304.000 330.568 308.438 329.137 C 315.749 326.779,326.056 323.041,330.705 321.061 C 332.992 320.087,332.958 320.157,332.129 318.173 C 331.659 317.047,332.405 316.913,326.711 319.151 C 319.250 322.084,305.216 327.000,304.305 327.000 C 304.063 327.000,303.994 326.649,304.049 325.688 L 304.125 324.375 307.625 323.174 C 316.640 320.082,329.965 315.098,330.440 314.641 C 330.496 314.587,329.514 312.021,329.349 311.790 C 329.315 311.743,326.793 312.680,323.743 313.872 C 316.143 316.843,305.105 320.750,304.312 320.750 C 304.070 320.750,303.992 320.477,304.047 319.813 L 304.125 318.875 308.000 317.546 C 313.371 315.704,318.594 313.775,323.790 311.712 L 328.206 309.960 327.686 308.668 C 326.977 306.905,326.992 306.913,325.604 307.517 C 319.192 310.305,304.264 315.577,304.087 315.116 C 303.552 313.721,303.781 313.573,309.875 311.390 C 315.750 309.285,325.101 305.677,325.441 305.384 C 325.529 305.307,324.282 302.500,324.160 302.500 C 324.107 302.500,322.053 303.300,319.595 304.278 C 312.345 307.162,304.359 310.026,304.150 309.816 C 304.067 309.734,304.000 309.250,304.000 308.740 L 304.000 307.813 306.313 307.024 C 310.292 305.667,320.574 301.934,321.709 301.434 C 322.898 300.911,322.915 300.805,322.120 298.901 C 321.818 298.178,321.625 297.996,321.300 298.124 C 316.250 300.123,304.753 304.250,304.234 304.250 C 304.105 304.250,304.000 303.176,304.000 301.848 C 304.000 300.032,303.924 299.474,303.688 299.561 C 302.483 300.002,282.671 305.505,282.588 305.421 C 282.533 305.366,288.964 288.452,289.087 288.329 C 289.133 288.284,290.960 289.521,293.147 291.079 C 295.335 292.636,298.733 295.048,300.698 296.439 L 304.271 298.969 309.948 294.939 C 313.070 292.722,316.919 289.993,318.500 288.874 C 320.081 287.756,323.119 285.605,325.250 284.095 C 327.381 282.585,333.344 278.365,338.500 274.717 C 343.656 271.069,350.069 266.528,352.750 264.625 C 355.431 262.723,358.356 260.663,359.250 260.049 C 360.144 259.434,361.040 258.778,361.241 258.590 C 361.939 257.941,361.975 258.258,361.377 259.813 M100.750 304.966 C 173.389 325.092,221.365 325.683,288.375 307.275 C 294.089 305.705,295.878 305.202,298.116 304.532 C 299.486 304.122,300.696 303.841,300.804 303.908 C 300.912 303.975,301.000 314.755,301.000 327.865 L 301.000 351.700 299.813 351.970 C 296.564 352.710,279.851 355.805,272.125 357.099 C 244.781 361.677,223.200 363.791,200.000 364.165 C 176.743 364.540,152.139 362.366,125.750 357.607 C 120.182 356.602,107.129 353.929,102.625 352.871 C 101.250 352.548,99.253 352.084,98.188 351.841 L 96.250 351.398 96.250 327.557 C 96.250 304.972,96.273 303.723,96.688 303.839 C 96.928 303.906,98.756 304.413,100.750 304.966 M145.100 330.306 C 138.445 332.790,140.156 339.138,148.003 341.074 C 150.907 341.790,152.000 342.520,152.000 343.743 C 152.000 346.205,146.963 345.979,146.215 343.483 L 145.921 342.500 143.992 342.500 C 140.339 342.500,140.153 342.643,140.914 344.876 C 142.715 350.162,153.704 350.883,156.620 345.906 C 159.189 341.523,156.986 338.400,149.984 336.496 C 146.863 335.647,146.500 335.453,146.500 334.633 C 146.500 333.608,147.415 333.143,149.278 333.222 C 150.044 333.255,151.250 334.363,151.250 335.034 C 151.250 335.557,152.331 335.641,155.213 335.339 C 156.972 335.156,157.093 334.905,156.284 333.123 C 154.933 330.150,149.312 328.734,145.100 330.306 M215.254 330.618 C 214.435 331.943,212.659 333.376,210.867 334.157 L 209.250 334.861 209.250 336.931 C 209.250 338.069,209.310 339.000,209.383 339.000 C 209.777 339.000,212.774 337.595,213.683 336.984 L 214.741 336.273 214.808 342.574 L 214.875 348.875 217.438 348.946 L 220.000 349.017 220.000 339.384 L 220.000 329.750 217.895 329.750 L 215.791 329.750 215.254 330.618 M230.250 330.134 C 226.367 331.340,225.155 336.073,228.196 338.151 L 228.966 338.677 227.843 339.469 C 223.482 342.544,226.212 348.532,232.253 349.142 C 239.642 349.889,244.286 343.824,239.490 339.692 L 238.305 338.672 239.036 338.056 C 243.974 333.901,237.351 327.929,230.250 330.134 M247.648 330.252 C 243.956 331.694,242.991 335.821,245.808 338.125 C 246.373 338.588,246.521 338.834,246.288 338.926 C 242.548 340.394,242.727 346.383,246.571 348.348 C 248.365 349.266,252.898 349.437,255.144 348.671 C 259.230 347.279,260.245 341.288,256.733 339.290 C 255.842 338.784,255.831 338.668,256.622 338.150 C 258.740 336.762,258.763 333.161,256.666 331.319 C 254.882 329.753,250.311 329.212,247.648 330.252 M266.024 330.281 C 261.164 332.198,259.500 341.223,263.047 346.432 C 265.532 350.082,273.104 350.164,275.486 346.567 C 279.582 340.383,272.968 333.428,267.032 337.677 L 266.439 338.101 266.616 336.738 C 267.088 333.093,269.708 331.476,270.949 334.065 C 271.323 334.846,271.388 334.854,274.192 334.462 C 276.538 334.134,276.582 334.040,275.291 332.139 C 273.797 329.940,269.215 329.022,266.024 330.281 M122.250 339.500 L 122.250 349.000 130.250 349.000 L 138.250 349.000 138.250 346.880 L 138.250 344.760 133.188 344.693 L 128.125 344.625 128.125 342.750 L 128.125 340.875 132.688 340.875 L 137.250 340.875 137.250 338.938 L 137.250 337.000 132.625 337.000 L 128.000 337.000 128.000 335.505 L 128.000 334.011 132.938 333.943 L 137.875 333.875 137.948 331.938 L 138.021 330.000 130.136 330.000 L 122.250 330.000 122.250 339.500 M159.250 332.313 L 159.250 334.625 162.187 334.625 L 165.125 334.625 165.191 341.814 L 165.258 349.004 168.129 348.981 L 171.000 348.959 171.000 341.792 L 171.000 334.625 173.937 334.625 L 176.875 334.625 176.947 332.313 L 177.019 330.000 168.134 330.000 L 159.250 330.000 159.250 332.313 M179.750 339.476 L 179.750 349.000 183.938 348.992 C 191.040 348.979,193.260 348.418,195.104 346.167 C 198.002 342.630,197.708 335.403,194.539 332.261 C 192.562 330.301,192.140 330.199,185.438 330.066 L 179.750 329.953 179.750 339.476 M235.214 333.670 C 236.414 335.034,235.419 337.231,233.596 337.244 C 231.907 337.256,230.844 335.511,231.622 334.005 C 232.353 332.592,234.121 332.426,235.214 333.670 M252.121 332.998 C 252.904 333.296,253.576 334.734,253.351 335.631 C 252.890 337.468,250.052 337.785,249.278 336.086 C 248.368 334.089,250.085 332.224,252.121 332.998 M189.680 334.905 C 190.879 335.793,191.125 336.600,191.125 339.643 C 191.125 343.730,190.627 344.390,187.338 344.668 L 185.500 344.823 185.500 339.508 L 185.500 334.194 187.242 334.292 C 188.495 334.363,189.179 334.535,189.680 334.905 M270.351 339.785 C 271.916 340.497,272.283 344.228,270.905 345.413 C 269.870 346.303,268.657 346.207,267.600 345.150 C 265.286 342.836,267.513 338.492,270.351 339.785 M235.150 341.100 C 237.454 343.404,234.712 347.491,232.193 345.508 C 230.777 344.395,230.687 342.275,231.999 340.962 C 233.007 339.955,234.050 340.000,235.150 341.100 M252.510 340.813 C 254.015 341.828,254.125 344.180,252.722 345.360 C 251.641 346.270,250.653 346.203,249.600 345.150 C 247.301 342.851,249.865 339.028,252.510 340.813 " stroke="none" fill="#2a1b6c" fill-rule="evenodd"></path><path id="path2" d="M195.813 22.922 C 196.053 22.985,196.447 22.985,196.688 22.922 C 196.928 22.859,196.731 22.808,196.250 22.808 C 195.769 22.808,195.572 22.859,195.813 22.922 M203.440 22.927 C 203.751 22.987,204.201 22.984,204.440 22.922 C 204.679 22.859,204.425 22.810,203.875 22.813 C 203.325 22.816,203.129 22.867,203.440 22.927 M198.697 26.185 C 199.562 26.234,200.912 26.234,201.697 26.184 C 202.483 26.135,201.775 26.095,200.125 26.095 C 198.475 26.096,197.833 26.136,198.697 26.185 M207.673 43.431 L 209.221 43.522 209.324 44.388 C 209.427 45.250,209.427 45.250,209.401 44.315 L 209.375 43.375 207.750 43.358 L 206.125 43.341 207.673 43.431 M204.327 45.875 C 204.329 46.700,204.376 47.007,204.431 46.558 C 204.487 46.109,204.486 45.434,204.429 45.058 C 204.372 44.682,204.326 45.050,204.327 45.875 M192.827 46.625 C 192.829 47.450,192.876 47.757,192.931 47.308 C 192.987 46.859,192.986 46.184,192.929 45.808 C 192.872 45.432,192.826 45.800,192.827 46.625 M197.495 58.675 C 197.429 59.391,197.467 59.884,197.579 59.772 C 197.690 59.660,197.745 59.075,197.699 58.471 L 197.616 57.375 197.495 58.675 M209.063 58.875 C 209.066 59.425,209.117 59.621,209.177 59.310 C 209.237 58.999,209.234 58.549,209.172 58.310 C 209.109 58.071,209.060 58.325,209.063 58.875 M231.808 59.000 C 231.808 59.481,231.859 59.678,231.922 59.438 C 231.985 59.197,231.985 58.803,231.922 58.563 C 231.859 58.322,231.808 58.519,231.808 59.000 M271.220 64.555 C 271.335 65.249,271.371 65.284,271.449 64.784 C 271.500 64.458,271.439 64.089,271.313 63.963 C 271.175 63.825,271.138 64.058,271.220 64.555 M99.750 67.625 C 98.726 68.656,97.944 69.500,98.013 69.500 C 98.081 69.500,98.976 68.656,100.000 67.625 C 101.024 66.594,101.806 65.750,101.737 65.750 C 101.669 65.750,100.774 66.594,99.750 67.625 M242.063 67.422 C 242.303 67.485,242.697 67.485,242.938 67.422 C 243.178 67.359,242.981 67.308,242.500 67.308 C 242.019 67.308,241.822 67.359,242.063 67.422 M195.440 74.177 C 195.751 74.237,196.201 74.234,196.440 74.172 C 196.679 74.109,196.425 74.060,195.875 74.063 C 195.325 74.066,195.129 74.117,195.440 74.177 M204.063 74.172 C 204.303 74.235,204.697 74.235,204.938 74.172 C 205.178 74.109,204.981 74.058,204.500 74.058 C 204.019 74.058,203.822 74.109,204.063 74.172 M266.827 79.375 C 266.829 80.200,266.876 80.507,266.931 80.058 C 266.987 79.609,266.986 78.934,266.929 78.558 C 266.872 78.182,266.826 78.550,266.827 79.375 M131.241 99.438 L 129.875 100.875 131.313 99.509 C 132.103 98.757,132.750 98.110,132.750 98.071 C 132.750 97.885,132.511 98.102,131.241 99.438 M308.875 112.250 C 309.691 113.075,310.416 113.750,310.484 113.750 C 310.553 113.750,309.941 113.075,309.125 112.250 C 308.309 111.425,307.584 110.750,307.516 110.750 C 307.447 110.750,308.059 111.425,308.875 112.250 M311.063 135.672 C 311.303 135.735,311.697 135.735,311.938 135.672 C 312.178 135.609,311.981 135.558,311.500 135.558 C 311.019 135.558,310.822 135.609,311.063 135.672 M341.818 162.250 C 341.818 162.869,341.867 163.122,341.926 162.813 C 341.986 162.503,341.986 161.997,341.926 161.688 C 341.867 161.378,341.818 161.631,341.818 162.250 M314.813 162.679 C 315.191 162.736,315.809 162.736,316.188 162.679 C 316.566 162.622,316.256 162.575,315.500 162.575 C 314.744 162.575,314.434 162.622,314.813 162.679 M103.063 163.625 C 103.066 164.175,103.117 164.371,103.177 164.060 C 103.237 163.749,103.234 163.299,103.172 163.060 C 103.109 162.821,103.060 163.075,103.063 163.625 M328.318 164.250 C 328.318 164.869,328.367 165.122,328.426 164.813 C 328.486 164.503,328.486 163.997,328.426 163.688 C 328.367 163.378,328.318 163.631,328.318 164.250 M311.075 165.250 C 311.075 166.006,311.122 166.316,311.179 165.938 C 311.236 165.559,311.236 164.941,311.179 164.563 C 311.122 164.184,311.075 164.494,311.075 165.250 M320.816 166.929 C 321.196 166.987,321.758 166.985,322.066 166.926 C 322.373 166.867,322.063 166.820,321.375 166.822 C 320.688 166.823,320.436 166.872,320.816 166.929 M71.563 167.875 C 71.566 168.425,71.617 168.621,71.677 168.310 C 71.737 167.999,71.734 167.549,71.672 167.310 C 71.609 167.071,71.560 167.325,71.563 167.875 M103.058 172.500 C 103.058 172.981,103.109 173.178,103.172 172.938 C 103.235 172.697,103.235 172.303,103.172 172.063 C 103.109 171.822,103.058 172.019,103.058 172.500 M341.808 174.000 C 341.808 174.481,341.859 174.678,341.922 174.438 C 341.985 174.197,341.985 173.803,341.922 173.563 C 341.859 173.322,341.808 173.519,341.808 174.000 M328.058 177.500 C 328.058 177.981,328.109 178.178,328.172 177.938 C 328.235 177.697,328.235 177.303,328.172 177.063 C 328.109 176.822,328.058 177.019,328.058 177.500 M312.563 177.179 C 312.941 177.236,313.559 177.236,313.938 177.179 C 314.316 177.122,314.006 177.075,313.250 177.075 C 312.494 177.075,312.184 177.122,312.563 177.179 M316.063 181.429 C 316.441 181.486,317.059 181.486,317.438 181.429 C 317.816 181.372,317.506 181.325,316.750 181.325 C 315.994 181.325,315.684 181.372,316.063 181.429 M75.940 195.427 C 76.251 195.487,76.701 195.484,76.940 195.422 C 77.179 195.359,76.925 195.310,76.375 195.313 C 75.825 195.316,75.629 195.367,75.940 195.427 M85.688 195.676 C 85.997 195.736,86.503 195.736,86.813 195.676 C 87.122 195.617,86.869 195.568,86.250 195.568 C 85.631 195.568,85.378 195.617,85.688 195.676 M87.063 199.922 C 87.303 199.985,87.697 199.985,87.938 199.922 C 88.178 199.859,87.981 199.808,87.500 199.808 C 87.019 199.808,86.822 199.859,87.063 199.922 M251.563 200.024 C 250.307 200.326,250.241 200.669,251.231 201.730 C 251.634 202.161,252.004 202.636,252.054 202.786 C 252.110 202.954,253.144 203.082,254.760 203.120 C 257.773 203.190,259.970 203.821,264.793 206.004 C 269.302 208.045,268.665 208.008,271.353 206.382 C 275.182 204.065,277.655 203.250,280.855 203.250 C 282.603 203.250,282.777 202.957,282.232 200.933 L 281.964 199.936 279.419 200.059 C 276.380 200.205,274.218 200.893,270.943 202.755 C 268.326 204.243,269.016 204.231,265.939 202.847 C 260.001 200.178,255.006 199.197,251.563 200.024 M124.875 200.414 C 122.316 200.598,118.414 201.003,118.323 201.094 C 117.930 201.487,117.760 204.550,118.139 204.404 C 119.087 204.040,125.501 203.697,128.875 203.830 C 133.923 204.028,136.982 204.744,143.803 207.325 L 147.481 208.716 151.453 207.353 C 163.083 203.363,168.079 203.488,178.710 208.037 C 180.269 208.704,181.699 209.250,181.889 209.250 C 182.395 209.250,184.000 208.443,184.000 208.189 C 184.000 208.069,184.094 208.029,184.209 208.100 C 184.324 208.171,185.129 207.892,185.998 207.481 C 193.452 203.957,197.066 203.779,206.468 206.476 L 210.811 207.721 214.401 206.361 C 224.380 202.579,225.663 202.638,234.783 207.296 L 239.690 209.803 243.496 207.535 C 245.589 206.288,247.852 205.019,248.526 204.714 C 250.033 204.033,249.835 202.000,248.261 202.000 C 248.118 202.000,248.000 201.830,248.000 201.621 C 248.000 201.162,246.325 201.967,242.263 204.378 L 239.566 205.979 235.220 203.788 C 226.289 199.285,223.564 199.220,213.186 203.263 L 210.747 204.214 208.186 203.477 C 197.125 200.298,193.424 200.486,184.136 204.699 C 181.955 205.688,181.876 205.704,181.011 205.335 C 168.956 200.185,162.390 199.920,150.626 204.110 C 147.494 205.225,147.787 205.241,143.666 203.738 C 136.574 201.152,130.233 200.030,124.875 200.414 M252.625 206.155 C 249.810 206.868,247.303 208.002,243.188 210.423 L 240.001 212.298 238.188 211.346 C 226.776 205.352,224.973 205.231,213.052 209.654 L 210.730 210.516 207.802 209.664 C 197.030 206.529,194.033 206.658,184.732 210.657 L 181.588 212.008 179.732 211.235 C 168.150 206.416,162.411 206.223,150.473 210.252 L 146.822 211.484 144.848 210.724 C 135.431 207.097,128.118 206.002,119.832 206.980 C 116.947 207.320,117.225 207.114,117.024 209.058 L 116.861 210.637 119.743 210.333 C 128.980 209.359,135.730 210.440,145.161 214.406 L 146.696 215.052 150.786 213.657 C 162.715 209.586,167.952 209.761,179.210 214.603 C 181.767 215.703,181.715 215.703,184.007 214.604 C 193.286 210.152,196.544 209.882,206.517 212.739 L 210.908 213.997 214.996 212.486 C 224.785 208.868,226.287 208.939,235.000 213.430 C 237.269 214.599,239.232 215.656,239.362 215.778 C 239.813 216.199,240.303 215.992,243.897 213.858 C 253.745 208.009,257.010 207.914,267.556 213.163 C 269.649 214.205,269.655 214.205,271.558 213.045 C 275.985 210.345,277.589 209.751,280.938 209.568 L 283.500 209.428 283.500 208.495 C 283.500 207.982,283.428 207.202,283.340 206.762 L 283.180 205.961 281.027 206.136 C 277.239 206.444,274.276 207.471,270.483 209.791 L 269.591 210.336 265.983 208.814 C 260.202 206.376,255.473 205.435,252.625 206.155 M252.250 212.667 C 250.403 213.165,247.318 214.631,243.572 216.790 L 240.478 218.574 235.927 216.297 C 227.384 212.025,224.539 211.820,216.125 214.867 C 214.750 215.365,212.995 215.995,212.224 216.268 L 210.823 216.764 207.349 215.772 C 196.965 212.808,193.459 213.004,184.292 217.063 L 181.459 218.318 178.792 217.249 C 167.449 212.705,161.848 212.559,150.029 216.497 L 146.184 217.778 145.154 217.360 C 135.708 213.530,128.350 212.287,119.951 213.103 C 117.778 213.314,117.765 213.350,119.080 215.427 L 119.679 216.375 123.902 216.290 C 130.572 216.156,134.216 216.843,141.688 219.646 L 146.125 221.310 150.750 219.786 C 162.961 215.761,168.112 216.057,180.282 221.481 L 181.438 221.996 183.657 220.971 C 193.817 216.276,196.123 216.080,206.589 219.023 L 211.054 220.279 214.714 218.906 C 225.450 214.879,227.090 215.049,238.522 221.372 L 240.537 222.487 242.269 221.454 C 243.221 220.886,244.000 220.345,244.000 220.252 C 244.000 220.159,244.141 220.080,244.313 220.076 C 244.484 220.072,245.525 219.532,246.625 218.877 C 254.039 214.457,257.181 214.448,266.988 218.813 L 270.601 220.421 272.862 219.044 C 276.472 216.844,280.703 215.235,280.948 215.970 C 281.036 216.234,282.294 214.073,282.750 212.874 C 282.961 212.319,282.929 212.300,281.922 212.398 C 278.136 212.765,276.803 213.141,274.000 214.628 C 269.799 216.856,270.630 216.753,267.565 215.424 C 260.415 212.323,256.281 211.579,252.250 212.667 M253.125 218.838 C 250.644 219.489,244.393 222.582,241.434 224.623 C 241.060 224.881,240.262 224.560,236.184 222.513 C 227.355 218.081,224.983 217.981,214.950 221.624 L 211.026 223.050 206.325 221.782 C 196.583 219.154,193.484 219.333,184.915 223.014 C 180.813 224.776,181.367 224.732,178.467 223.529 C 167.487 218.977,161.420 218.819,149.492 222.776 L 145.608 224.064 141.867 222.679 C 134.530 219.964,127.097 218.562,123.014 219.123 C 121.502 219.331,121.499 219.349,122.688 221.100 L 123.625 222.481 125.827 222.490 C 130.453 222.510,133.861 223.303,141.720 226.186 L 145.565 227.596 149.845 226.175 C 162.315 222.034,166.482 222.172,178.491 227.121 L 181.278 228.270 184.585 226.786 C 194.036 222.545,196.563 222.375,206.625 225.300 C 211.421 226.695,210.917 226.703,215.000 225.156 C 225.246 221.275,226.661 221.347,236.173 226.243 L 241.034 228.745 244.579 226.652 C 254.841 220.596,257.378 220.388,267.125 224.801 C 268.637 225.486,270.229 226.201,270.661 226.391 C 271.413 226.720,271.514 226.690,273.036 225.701 C 273.910 225.132,274.818 224.650,275.054 224.630 C 275.290 224.610,275.747 224.207,276.070 223.734 C 276.392 223.262,277.136 222.172,277.724 221.314 C 278.312 220.455,278.755 219.647,278.709 219.518 C 278.579 219.155,276.163 220.107,273.539 221.557 C 272.227 222.282,271.035 222.838,270.889 222.792 C 270.744 222.746,269.106 222.056,267.250 221.259 C 261.242 218.680,256.699 217.901,253.125 218.838 M252.193 225.577 C 249.932 226.371,245.902 228.448,242.811 230.411 L 241.496 231.246 237.061 229.008 C 227.686 224.276,225.077 224.163,214.788 228.042 C 210.987 229.475,211.590 229.482,206.000 227.935 C 196.608 225.336,193.136 225.616,183.685 229.735 L 180.943 230.930 178.909 230.069 C 167.271 225.147,161.286 224.972,148.546 229.182 L 144.967 230.364 143.421 229.788 C 134.656 226.521,126.250 224.554,126.250 225.770 C 126.250 226.240,128.834 229.333,129.047 229.119 C 129.479 228.687,137.367 230.970,142.574 233.034 C 144.290 233.714,145.151 233.939,145.449 233.784 C 145.683 233.663,147.787 232.932,150.125 232.161 C 161.535 228.398,165.977 228.523,176.954 232.922 L 181.033 234.556 184.704 232.932 C 194.002 228.817,196.663 228.649,206.625 231.549 C 211.472 232.960,211.108 232.950,214.309 231.746 C 226.284 227.241,227.726 227.396,240.453 234.544 C 241.492 235.128,241.367 235.170,245.000 232.999 C 253.451 227.947,256.222 227.205,261.377 228.615 C 264.708 229.525,269.286 231.529,269.110 232.000 C 268.951 232.426,268.947 232.431,270.573 230.482 L 271.735 229.088 268.334 227.639 C 260.938 224.489,256.796 223.959,252.193 225.577 M255.884 231.022 C 253.028 231.450,249.671 232.918,244.438 236.024 L 241.889 237.538 237.757 235.431 C 227.974 230.443,225.602 230.333,214.750 234.367 C 211.117 235.717,211.333 235.719,206.250 234.268 C 196.989 231.624,192.493 231.935,184.000 235.807 C 183.381 236.090,182.402 236.523,181.825 236.771 L 180.774 237.222 178.200 236.209 C 166.029 231.419,160.693 231.267,148.275 235.359 L 144.237 236.690 142.556 236.014 C 138.890 234.539,132.615 232.551,132.377 232.790 C 132.316 232.850,133.636 234.244,135.310 235.887 C 136.984 237.531,138.133 238.607,137.864 238.279 L 137.375 237.684 138.000 237.874 C 138.344 237.979,139.886 238.555,141.427 239.155 L 144.229 240.246 147.927 238.987 C 161.065 234.515,165.865 234.619,177.744 239.634 C 180.983 241.001,180.399 241.056,185.250 238.926 C 194.579 234.830,197.149 234.820,210.250 238.836 C 211.299 239.157,211.484 239.139,213.000 238.559 C 225.861 233.639,227.033 233.649,236.933 238.765 C 242.670 241.731,241.459 241.683,245.781 239.115 C 254.364 234.016,257.387 233.319,263.070 235.129 L 265.264 235.828 264.713 236.414 C 264.411 236.736,264.211 236.999,264.269 236.998 C 264.327 236.996,265.387 235.957,266.625 234.688 C 267.863 233.419,268.622 232.594,268.312 232.855 C 267.756 233.322,267.726 233.320,266.062 232.668 C 262.360 231.220,258.609 230.613,255.884 231.022 M256.015 237.382 C 253.012 237.925,250.707 238.940,245.454 242.031 C 241.930 244.104,243.120 244.215,237.153 241.258 C 227.840 236.643,225.088 236.638,213.383 241.211 L 211.390 241.989 208.508 241.129 C 197.205 237.757,193.433 237.914,183.706 242.164 L 180.537 243.549 177.081 242.172 C 165.894 237.713,160.463 237.571,148.438 241.421 C 143.384 243.038,143.440 242.975,145.645 244.574 C 146.550 245.230,147.229 245.668,147.154 245.548 C 147.033 245.351,151.402 243.875,155.000 242.898 C 161.878 241.029,169.301 242.141,178.851 246.471 L 180.497 247.217 184.129 245.602 C 194.085 241.174,196.881 241.059,208.535 244.601 L 211.445 245.485 215.424 244.005 C 226.641 239.835,228.082 239.967,239.638 246.224 L 242.401 247.720 245.976 245.596 C 252.810 241.537,255.366 240.500,258.540 240.500 C 260.253 240.500,263.878 238.240,262.968 237.740 C 261.780 237.088,258.557 236.922,256.015 237.382 M254.220 244.226 C 252.224 244.865,249.096 246.425,245.679 248.486 L 242.733 250.262 241.054 249.285 C 230.294 243.020,226.567 242.690,214.938 246.969 L 211.502 248.234 207.688 247.140 C 196.795 244.014,193.230 244.220,183.295 248.546 C 179.996 249.982,180.788 250.036,175.637 248.020 C 166.686 244.516,161.179 244.108,152.458 246.302 C 149.915 246.942,149.378 247.151,149.736 247.362 C 152.367 248.915,152.913 249.251,153.157 249.464 C 153.311 249.601,153.536 249.620,153.657 249.508 C 154.111 249.083,157.729 248.442,160.380 248.316 C 165.581 248.069,169.988 249.121,178.005 252.521 L 180.385 253.531 182.542 252.524 C 193.560 247.387,197.318 247.191,209.449 251.123 L 211.522 251.795 214.324 250.745 C 226.334 246.243,227.627 246.228,236.125 250.497 C 238.600 251.740,240.769 252.756,240.945 252.754 C 242.080 252.741,255.750 244.506,255.750 243.835 C 255.750 243.729,255.876 243.697,254.220 244.226 M280.750 246.625 C 280.143 247.244,279.702 247.750,279.771 247.750 C 279.840 247.750,280.393 247.244,281.000 246.625 C 281.607 246.006,282.048 245.500,281.979 245.500 C 281.910 245.500,281.357 246.006,280.750 246.625 M223.262 250.623 C 221.128 251.108,219.082 251.765,214.987 253.283 L 211.600 254.538 207.679 253.403 C 196.550 250.179,192.649 250.486,181.724 255.447 L 180.073 256.196 177.724 255.206 C 170.169 252.022,159.730 250.079,157.565 251.454 C 156.984 251.823,163.456 254.834,164.698 254.773 C 166.858 254.667,179.516 258.983,178.717 259.553 C 178.463 259.734,178.498 259.757,178.855 259.640 C 179.119 259.554,179.417 259.615,179.516 259.776 C 179.649 259.991,179.991 259.930,180.786 259.550 C 193.217 253.614,195.723 253.370,207.814 256.915 L 211.753 258.070 214.689 256.929 C 220.472 254.682,224.713 253.495,226.927 253.504 C 229.015 253.512,234.656 255.339,233.958 255.781 C 233.494 256.075,233.910 256.054,234.441 255.757 C 234.680 255.623,235.662 255.164,236.625 254.736 L 238.375 253.959 236.427 252.972 C 231.723 250.586,227.076 249.757,223.262 250.623 M110.375 256.250 C 110.912 256.800,111.408 257.250,111.476 257.250 C 111.545 257.250,111.162 256.800,110.625 256.250 C 110.088 255.700,109.592 255.250,109.524 255.250 C 109.455 255.250,109.838 255.700,110.375 256.250 M198.813 265.435 C 199.603 265.484,200.897 265.484,201.688 265.435 C 202.478 265.385,201.831 265.345,200.250 265.345 C 198.669 265.345,198.022 265.385,198.813 265.435 M258.737 266.438 L 257.875 267.375 258.813 266.513 C 259.685 265.712,259.865 265.500,259.674 265.500 C 259.632 265.500,259.210 265.922,258.737 266.438 M302.487 270.938 L 301.625 271.875 302.563 271.013 C 303.435 270.212,303.615 270.000,303.424 270.000 C 303.382 270.000,302.960 270.422,302.487 270.938 M139.313 279.672 C 139.553 279.735,139.947 279.735,140.188 279.672 C 140.428 279.609,140.231 279.558,139.750 279.558 C 139.269 279.558,139.072 279.609,139.313 279.672 M147.438 281.926 C 147.747 281.986,148.253 281.986,148.563 281.926 C 148.872 281.867,148.619 281.818,148.000 281.818 C 147.381 281.818,147.128 281.867,147.438 281.926 M221.750 285.078 C 221.750 285.121,222.116 285.487,222.563 285.891 L 223.375 286.625 222.641 285.813 C 221.956 285.055,221.750 284.885,221.750 285.078 M304.091 301.875 C 304.092 303.250,304.134 303.781,304.185 303.054 C 304.235 302.328,304.235 301.203,304.183 300.554 C 304.132 299.906,304.091 300.500,304.091 301.875 M300.436 303.932 C 300.680 304.105,300.762 309.323,300.813 328.014 L 300.879 351.875 300.877 327.896 C 300.875 306.794,300.830 303.904,300.500 303.814 C 300.224 303.739,300.207 303.770,300.436 303.932 M192.690 313.177 C 193.001 313.237,193.451 313.234,193.690 313.172 C 193.929 313.109,193.675 313.060,193.125 313.063 C 192.575 313.066,192.379 313.117,192.690 313.177 M304.000 314.360 C 304.000 314.833,304.086 315.274,304.192 315.339 C 304.298 315.405,304.342 315.017,304.291 314.479 C 304.176 313.270,304.000 313.198,304.000 314.360 M196.563 317.436 C 197.628 317.483,199.372 317.483,200.438 317.436 C 201.503 317.389,200.631 317.351,198.500 317.351 C 196.369 317.351,195.497 317.389,196.563 317.436 M193.688 320.676 C 193.997 320.736,194.503 320.736,194.813 320.676 C 195.122 320.617,194.869 320.568,194.250 320.568 C 193.631 320.568,193.378 320.617,193.688 320.676 M204.438 320.676 C 204.747 320.736,205.253 320.736,205.563 320.676 C 205.872 320.617,205.619 320.568,205.000 320.568 C 204.381 320.568,204.128 320.617,204.438 320.676 M220.112 340.000 C 220.112 344.469,220.146 346.297,220.187 344.063 C 220.228 341.828,220.228 338.172,220.187 335.938 C 220.146 333.703,220.112 335.531,220.112 340.000 M304.087 334.000 C 304.087 335.169,304.130 335.647,304.183 335.063 C 304.236 334.478,304.236 333.522,304.183 332.938 C 304.130 332.353,304.087 332.831,304.087 334.000 M160.938 334.683 C 161.522 334.736,162.478 334.736,163.063 334.683 C 163.647 334.630,163.169 334.587,162.000 334.587 C 160.831 334.587,160.353 334.630,160.938 334.683 M197.058 339.500 C 197.058 339.981,197.109 340.178,197.172 339.938 C 197.235 339.697,197.235 339.303,197.172 339.063 C 197.109 338.822,197.058 339.019,197.058 339.500 M130.300 340.936 C 131.496 340.982,133.521 340.982,134.800 340.936 C 136.079 340.891,135.100 340.854,132.625 340.853 C 130.150 340.853,129.104 340.890,130.300 340.936 M304.108 348.000 C 304.108 351.231,304.143 352.553,304.187 350.938 C 304.230 349.322,304.230 346.678,304.187 345.063 C 304.143 343.447,304.108 344.769,304.108 348.000 M132.938 344.683 C 133.522 344.736,134.478 344.736,135.063 344.683 C 135.647 344.630,135.169 344.587,134.000 344.587 C 132.831 344.587,132.353 344.630,132.938 344.683 M186.063 344.679 C 186.441 344.736,187.059 344.736,187.438 344.679 C 187.816 344.622,187.506 344.575,186.750 344.575 C 185.994 344.575,185.684 344.622,186.063 344.679 M187.063 364.179 C 187.441 364.236,188.059 364.236,188.438 364.179 C 188.816 364.122,188.506 364.075,187.750 364.075 C 186.994 364.075,186.684 364.122,187.063 364.179 M202.438 364.181 C 202.884 364.236,203.616 364.236,204.063 364.181 C 204.509 364.125,204.144 364.080,203.250 364.080 C 202.356 364.080,201.991 364.125,202.438 364.181 M186.813 367.422 C 187.053 367.485,187.447 367.485,187.688 367.422 C 187.928 367.359,187.731 367.308,187.250 367.308 C 186.769 367.308,186.572 367.359,186.813 367.422 M203.190 367.427 C 203.501 367.487,203.951 367.484,204.190 367.422 C 204.429 367.359,204.175 367.310,203.625 367.313 C 203.075 367.316,202.879 367.367,203.190 367.427 " stroke="none" fill="#0f94d7" fill-rule="evenodd"></path><path id="path3" d="M218.901 76.813 C 218.834 77.259,218.655 79.088,218.504 80.875 C 218.352 82.662,218.009 86.544,217.740 89.500 C 217.471 92.456,217.082 96.787,216.875 99.125 C 216.669 101.463,216.334 105.119,216.131 107.250 C 215.929 109.381,215.530 113.713,215.246 116.875 C 214.426 125.993,213.732 133.101,213.655 133.178 C 213.616 133.218,212.412 133.081,210.979 132.874 C 209.547 132.668,206.379 132.425,203.941 132.335 L 199.506 132.172 199.441 123.023 L 199.375 113.875 198.000 113.875 L 196.625 113.875 196.414 123.000 C 196.297 128.019,196.163 132.166,196.115 132.215 C 196.067 132.265,194.803 132.396,193.305 132.507 C 191.808 132.617,189.316 132.895,187.768 133.122 C 186.220 133.350,184.924 133.500,184.889 133.456 C 184.853 133.411,184.593 132.531,184.310 131.500 C 184.027 130.469,183.495 128.613,183.126 127.375 C 182.757 126.138,182.143 124.056,181.760 122.750 C 180.696 119.120,178.283 110.866,177.629 108.625 C 177.309 107.525,176.517 104.825,175.870 102.625 C 175.222 100.425,174.498 97.950,174.259 97.125 C 174.021 96.300,172.837 92.250,171.628 88.125 C 170.419 84.000,169.377 80.372,169.311 80.063 C 169.190 79.493,168.000 79.210,168.000 79.750 C 168.000 79.888,167.733 80.000,167.406 80.000 C 166.686 80.000,166.146 80.587,166.315 81.186 C 166.436 81.615,166.903 83.205,169.458 91.875 C 171.402 98.470,172.471 102.123,173.371 105.250 C 173.826 106.831,174.786 110.094,175.504 112.500 C 176.222 114.906,176.865 117.100,176.933 117.375 C 177.001 117.650,177.426 119.112,177.878 120.625 C 178.330 122.138,179.008 124.444,179.384 125.750 C 179.761 127.056,180.448 129.371,180.910 130.893 C 181.964 134.366,181.992 134.157,180.438 134.488 C 179.716 134.642,177.550 135.227,175.625 135.789 C 173.700 136.351,171.951 136.860,171.738 136.921 C 171.449 137.004,171.087 136.405,170.320 134.579 C 169.754 133.229,168.205 129.539,166.878 126.379 C 165.551 123.218,164.434 120.601,164.396 120.563 C 164.358 120.525,163.696 120.773,162.924 121.114 L 161.521 121.734 161.984 122.805 C 164.374 128.329,168.256 137.856,168.194 138.044 C 168.108 138.301,162.652 140.751,162.170 140.748 C 162.008 140.748,161.697 140.438,161.480 140.061 C 161.263 139.684,159.413 136.506,157.369 133.000 C 155.326 129.494,152.738 125.050,151.620 123.125 C 138.060 99.790,137.241 98.449,136.782 98.808 C 134.907 100.272,134.750 100.799,135.760 102.245 C 136.002 102.592,136.980 104.225,137.932 105.875 C 140.822 110.879,147.693 122.694,149.492 125.750 C 157.251 138.936,159.029 142.065,158.919 142.347 C 158.859 142.500,157.925 143.117,156.843 143.719 C 155.761 144.321,153.830 145.488,152.553 146.313 C 151.276 147.139,150.197 147.771,150.155 147.719 C 150.114 147.668,148.674 145.544,146.956 143.000 C 145.238 140.456,142.557 136.491,140.998 134.188 C 139.439 131.884,138.031 130.000,137.869 130.000 C 137.304 130.000,135.475 131.507,135.660 131.821 C 135.936 132.289,145.480 146.447,146.552 147.979 C 147.752 149.693,147.834 149.429,145.509 151.353 C 143.040 153.395,143.519 153.523,140.736 150.073 C 139.437 148.463,137.025 145.504,135.375 143.498 C 133.725 141.492,129.234 136.000,125.395 131.294 C 121.556 126.587,118.294 122.775,118.145 122.822 C 117.997 122.869,117.575 123.463,117.209 124.141 L 116.543 125.375 119.834 129.409 C 121.644 131.628,125.037 135.782,127.375 138.639 C 129.713 141.497,133.406 146.038,135.584 148.730 C 137.761 151.422,139.814 153.912,140.146 154.264 C 140.478 154.615,140.749 155.009,140.748 155.139 C 140.746 155.514,136.254 159.835,136.054 159.654 C 135.956 159.564,132.866 156.487,129.189 152.817 L 122.503 146.143 121.372 147.253 L 120.241 148.363 127.150 155.275 L 134.059 162.187 131.720 165.096 L 129.381 168.004 119.377 158.002 C 113.875 152.501,109.226 148.000,109.047 148.000 C 108.867 148.000,108.790 147.887,108.875 147.750 C 108.960 147.613,108.968 147.500,108.893 147.500 C 108.613 147.500,108.000 149.343,108.000 150.187 C 108.000 151.006,108.631 151.697,117.688 160.792 C 123.016 166.142,127.408 170.558,127.449 170.604 C 127.489 170.651,126.859 171.743,126.048 173.032 C 125.237 174.321,124.386 175.741,124.155 176.188 C 123.595 177.276,124.340 177.635,114.978 171.770 C 109.334 168.234,106.570 166.635,106.444 166.832 C 106.170 167.263,106.209 170.250,106.489 170.250 C 106.621 170.250,109.067 171.728,111.927 173.535 C 114.786 175.341,118.132 177.451,119.363 178.222 C 120.593 178.994,121.708 179.699,121.840 179.789 C 121.978 179.884,121.490 181.265,120.693 183.039 C 119.930 184.736,119.238 186.330,119.154 186.580 C 119.057 186.872,118.846 186.987,118.564 186.900 C 118.322 186.826,116.037 186.261,113.486 185.644 C 110.934 185.026,108.656 184.448,108.423 184.359 C 108.061 184.220,108.000 184.372,108.003 185.411 C 108.008 187.203,108.200 187.684,108.960 187.812 C 109.815 187.957,117.598 189.809,117.709 189.895 C 117.755 189.930,117.508 190.897,117.161 192.042 C 115.873 196.289,115.045 199.747,114.387 203.625 L 114.048 205.625 115.061 207.750 C 115.618 208.919,116.114 209.922,116.162 209.979 C 116.474 210.349,116.746 209.201,117.401 204.750 C 119.375 191.332,126.209 176.251,134.958 166.008 C 137.441 163.100,140.162 160.109,140.984 159.383 C 141.456 158.966,143.064 157.542,144.557 156.217 C 171.635 132.198,213.312 128.600,244.125 147.621 C 258.643 156.584,271.709 171.443,277.322 185.375 C 277.543 185.925,278.077 187.219,278.508 188.250 C 280.850 193.854,283.523 204.126,284.072 209.625 C 284.151 210.410,286.500 206.201,286.500 205.275 C 286.500 203.413,284.158 194.484,282.401 189.648 C 281.756 187.874,281.318 186.333,281.427 186.225 C 281.593 186.059,285.739 184.399,291.438 182.217 C 293.026 181.608,293.494 181.176,293.519 180.295 C 293.530 179.926,293.578 179.416,293.626 179.161 C 293.861 177.917,292.720 178.155,287.250 180.488 C 285.007 181.446,279.980 183.313,279.898 183.220 C 279.851 183.168,278.959 181.467,277.914 179.440 L 276.016 175.755 284.895 169.877 C 289.778 166.645,293.888 164.000,294.027 164.000 C 294.166 164.000,294.223 163.909,294.154 163.797 C 294.086 163.686,294.006 162.813,293.978 161.857 L 293.928 160.119 284.223 166.559 C 278.885 170.102,274.459 173.000,274.388 173.000 C 274.316 173.000,273.714 172.184,273.050 171.188 C 272.386 170.191,271.456 168.832,270.984 168.168 L 270.126 166.960 272.881 164.293 C 274.396 162.825,278.108 159.309,281.130 156.478 C 284.152 153.648,287.781 150.217,289.193 148.853 L 291.762 146.375 291.409 145.085 C 290.767 142.734,292.202 141.694,279.621 153.625 C 274.691 158.300,270.102 162.626,269.424 163.237 L 268.191 164.350 267.283 163.357 C 266.784 162.811,265.460 161.362,264.342 160.137 L 262.309 157.911 267.691 152.643 C 270.651 149.746,273.337 147.117,273.661 146.801 C 274.428 146.053,274.421 146.018,273.261 144.886 L 272.272 143.920 268.074 147.941 C 265.764 150.153,263.091 152.758,262.132 153.731 C 260.026 155.868,260.049 155.867,257.922 153.912 L 256.218 152.347 258.064 150.236 C 260.818 147.085,278.847 126.105,281.910 122.486 C 282.258 122.076,281.688 120.653,280.835 119.800 C 280.383 119.348,281.280 118.409,273.603 127.375 C 265.559 136.770,261.413 141.594,261.247 141.750 C 261.174 141.819,259.505 143.759,257.538 146.063 C 253.463 150.833,253.900 150.587,252.044 149.159 C 251.263 148.559,249.641 147.433,248.438 146.658 C 247.234 145.882,246.250 145.191,246.250 145.122 C 246.250 145.053,247.804 143.000,249.703 140.561 C 255.338 133.323,256.875 131.271,256.875 130.986 C 256.875 130.759,255.017 129.250,254.738 129.250 C 254.489 129.250,252.001 132.400,245.755 140.625 C 244.607 142.137,243.636 143.415,243.599 143.464 C 243.562 143.512,243.215 143.389,242.828 143.190 C 242.441 142.991,241.197 142.356,240.063 141.778 C 238.928 141.199,238.000 140.690,238.000 140.646 C 238.000 140.554,245.182 127.485,246.836 124.566 C 247.783 122.897,251.569 116.033,254.252 111.125 C 254.703 110.300,255.152 109.513,255.250 109.375 C 255.348 109.237,255.998 108.056,256.695 106.750 C 257.391 105.444,258.858 102.800,259.955 100.875 L 261.948 97.375 261.302 96.688 C 260.947 96.309,260.509 96.000,260.328 96.000 C 260.148 96.000,260.000 95.822,260.000 95.604 C 260.000 94.324,258.757 96.395,250.757 111.000 C 249.740 112.856,247.876 116.231,246.615 118.500 C 244.714 121.921,237.546 134.899,235.673 138.313 C 235.039 139.467,235.271 139.478,231.888 138.125 C 230.342 137.506,228.947 137.000,228.788 137.000 C 228.408 137.000,228.416 136.865,229.008 132.967 C 229.287 131.129,229.743 128.050,230.021 126.125 C 230.299 124.200,230.586 122.384,230.659 122.089 C 230.780 121.599,230.662 121.539,229.255 121.376 C 227.372 121.157,227.671 120.599,226.913 125.750 C 225.697 134.004,225.447 135.625,225.377 135.700 C 225.339 135.741,223.973 135.438,222.342 135.027 C 220.710 134.615,218.869 134.182,218.250 134.065 L 217.125 133.852 217.158 131.573 C 217.177 130.319,217.374 127.456,217.596 125.209 C 217.818 122.963,218.227 118.622,218.503 115.563 C 219.646 102.917,219.997 99.090,221.497 82.977 C 222.158 75.887,222.237 76.592,220.738 76.271 C 219.017 75.902,219.038 75.895,218.901 76.813 " stroke="none" fill="#ce3527" fill-rule="evenodd"></path><path id="path4" d="M218.558 79.250 C 218.558 79.731,218.609 79.928,218.672 79.688 C 218.735 79.447,218.735 79.053,218.672 78.813 C 218.609 78.572,218.558 78.769,218.558 79.250 M218.308 82.000 C 218.308 82.481,218.359 82.678,218.422 82.438 C 218.485 82.197,218.485 81.803,218.422 81.563 C 218.359 81.322,218.308 81.519,218.308 82.000 M221.058 87.500 C 221.058 87.981,221.109 88.178,221.172 87.938 C 221.235 87.697,221.235 87.303,221.172 87.063 C 221.109 86.822,221.058 87.019,221.058 87.500 M217.563 90.125 C 217.566 90.675,217.617 90.871,217.677 90.560 C 217.737 90.249,217.734 89.799,217.672 89.560 C 217.609 89.321,217.560 89.575,217.563 90.125 M220.308 95.750 C 220.308 96.231,220.359 96.428,220.422 96.188 C 220.485 95.947,220.485 95.553,220.422 95.313 C 220.359 95.072,220.308 95.269,220.308 95.750 M220.058 98.250 C 220.058 98.731,220.109 98.928,220.172 98.688 C 220.235 98.447,220.235 98.053,220.172 97.813 C 220.109 97.572,220.058 97.769,220.058 98.250 M216.568 101.000 C 216.568 101.619,216.617 101.872,216.676 101.563 C 216.736 101.253,216.736 100.747,216.676 100.438 C 216.617 100.128,216.568 100.381,216.568 101.000 M216.308 104.000 C 216.308 104.481,216.359 104.678,216.422 104.438 C 216.485 104.197,216.485 103.803,216.422 103.563 C 216.359 103.322,216.308 103.519,216.308 104.000 M219.308 106.500 C 219.308 106.981,219.359 107.178,219.422 106.938 C 219.485 106.697,219.485 106.303,219.422 106.063 C 219.359 105.822,219.308 106.019,219.308 106.500 M219.058 109.250 C 219.058 109.731,219.109 109.928,219.172 109.688 C 219.235 109.447,219.235 109.053,219.172 108.813 C 219.109 108.572,219.058 108.769,219.058 109.250 M215.563 112.125 C 215.566 112.675,215.617 112.871,215.677 112.560 C 215.737 112.249,215.734 111.799,215.672 111.560 C 215.609 111.321,215.560 111.575,215.563 112.125 M196.300 118.938 C 196.350 124.158,196.440 123.549,196.560 117.187 C 196.596 115.296,196.541 113.749,196.438 113.750 C 196.334 113.750,196.272 116.084,196.300 118.938 M199.498 115.949 L 199.621 118.125 199.697 116.149 C 199.738 115.062,199.683 114.082,199.574 113.973 C 199.464 113.863,199.430 114.752,199.498 115.949 M218.313 117.625 C 218.316 118.175,218.367 118.371,218.427 118.060 C 218.487 117.749,218.484 117.299,218.422 117.060 C 218.359 116.821,218.310 117.075,218.313 117.625 M218.058 120.250 C 218.058 120.731,218.109 120.928,218.172 120.688 C 218.235 120.447,218.235 120.053,218.172 119.813 C 218.109 119.572,218.058 119.769,218.058 120.250 M214.558 123.250 C 214.558 123.731,214.609 123.928,214.672 123.688 C 214.735 123.447,214.735 123.053,214.672 122.813 C 214.609 122.572,214.558 122.769,214.558 123.250 M214.313 125.875 C 214.316 126.425,214.367 126.621,214.427 126.310 C 214.487 125.999,214.484 125.549,214.422 125.310 C 214.359 125.071,214.310 125.325,214.313 125.875 M217.313 128.375 C 217.316 128.925,217.367 129.121,217.427 128.810 C 217.487 128.499,217.484 128.049,217.422 127.810 C 217.359 127.571,217.310 127.825,217.313 128.375 M271.359 129.813 L 270.625 130.625 271.438 129.891 C 272.195 129.206,272.365 129.000,272.172 129.000 C 272.129 129.000,271.763 129.366,271.359 129.813 M217.058 131.250 C 217.058 131.731,217.109 131.928,217.172 131.688 C 217.235 131.447,217.235 131.053,217.172 130.813 C 217.109 130.572,217.058 130.769,217.058 131.250 M200.313 132.182 C 200.828 132.236,201.672 132.236,202.188 132.182 C 202.703 132.128,202.281 132.084,201.250 132.084 C 200.219 132.084,199.797 132.128,200.313 132.182 M193.940 132.427 C 194.251 132.487,194.701 132.484,194.940 132.422 C 195.179 132.359,194.925 132.310,194.375 132.313 C 193.825 132.316,193.629 132.367,193.940 132.427 M206.063 132.422 C 206.303 132.485,206.697 132.485,206.938 132.422 C 207.178 132.359,206.981 132.308,206.500 132.308 C 206.019 132.308,205.822 132.359,206.063 132.422 M194.063 135.672 C 194.303 135.735,194.697 135.735,194.938 135.672 C 195.178 135.609,194.981 135.558,194.500 135.558 C 194.019 135.558,193.822 135.609,194.063 135.672 M206.063 135.672 C 206.303 135.735,206.697 135.735,206.938 135.672 C 207.178 135.609,206.981 135.558,206.500 135.558 C 206.019 135.558,205.822 135.609,206.063 135.672 M228.500 136.250 C 228.500 136.662,228.593 137.000,228.707 137.000 C 228.820 137.000,228.864 136.662,228.803 136.250 C 228.743 135.838,228.650 135.500,228.597 135.500 C 228.543 135.500,228.500 135.838,228.500 136.250 M208.813 135.922 C 209.053 135.985,209.447 135.985,209.688 135.922 C 209.928 135.859,209.731 135.808,209.250 135.808 C 208.769 135.808,208.572 135.859,208.813 135.922 M263.609 138.813 L 262.875 139.625 263.688 138.891 C 264.445 138.206,264.615 138.000,264.422 138.000 C 264.379 138.000,264.013 138.366,263.609 138.813 M234.000 138.989 C 234.206 139.128,234.591 139.244,234.854 139.246 C 235.494 139.251,235.294 139.108,234.375 138.903 C 233.827 138.780,233.726 138.803,234.000 138.989 M289.737 143.938 L 288.875 144.875 289.813 144.013 C 290.685 143.212,290.865 143.000,290.674 143.000 C 290.632 143.000,290.210 143.422,289.737 143.938 M246.618 144.508 C 246.172 145.001,246.172 145.028,246.628 145.445 C 247.073 145.853,247.080 145.852,246.764 145.433 C 246.481 145.057,246.498 144.917,246.879 144.495 C 247.126 144.223,247.271 144.000,247.202 144.000 C 247.134 144.000,246.871 144.229,246.618 144.508 M269.869 146.063 L 267.875 148.125 269.938 146.131 C 271.853 144.279,272.114 144.000,271.932 144.000 C 271.894 144.000,270.966 144.928,269.869 146.063 M272.500 144.078 C 272.500 144.121,272.866 144.487,273.313 144.891 L 274.125 145.625 273.391 144.813 C 272.706 144.055,272.500 143.885,272.500 144.078 M175.634 145.401 C 175.139 145.896,175.252 146.310,176.543 148.750 C 177.917 151.346,177.899 151.332,179.387 150.881 C 181.668 150.189,182.892 150.468,184.500 152.044 C 186.749 154.249,190.000 158.085,190.000 158.533 C 190.000 158.652,185.065 158.750,179.000 158.750 C 170.045 158.750,168.000 158.811,168.000 159.081 C 168.000 159.358,169.353 162.104,169.685 162.500 C 169.743 162.569,171.440 162.681,173.457 162.750 L 177.125 162.875 177.196 167.250 C 177.285 172.674,177.327 172.509,175.632 173.339 C 172.775 174.738,170.717 174.638,167.297 172.937 C 164.776 171.682,164.777 171.684,165.743 170.718 C 168.301 168.161,168.052 165.036,165.043 161.912 C 161.552 158.288,158.185 157.565,153.551 159.445 C 150.741 160.585,150.828 160.481,151.500 161.906 C 152.730 164.511,152.772 164.519,156.340 162.756 C 160.862 160.521,163.763 161.415,163.745 165.038 C 163.729 168.072,162.198 169.386,158.123 169.860 C 154.019 170.337,153.577 171.017,155.837 173.376 C 157.158 174.754,157.513 174.776,160.482 173.658 C 165.153 171.900,167.823 176.765,164.440 180.868 C 160.998 185.044,154.798 182.671,151.171 175.788 L 149.968 173.504 149.296 173.868 C 147.841 174.657,147.860 174.576,148.739 176.288 C 153.152 184.886,158.229 188.130,164.324 186.247 C 167.822 185.167,169.663 182.490,169.434 178.818 C 169.363 177.680,169.335 176.750,169.371 176.750 C 169.407 176.750,169.982 176.992,170.650 177.287 C 171.928 177.852,174.120 177.991,176.188 177.638 L 177.250 177.456 177.250 183.331 L 177.250 189.205 178.813 190.184 C 179.672 190.722,180.571 191.234,180.810 191.322 C 181.221 191.473,181.250 190.655,181.310 177.179 L 181.375 162.875 185.375 162.875 L 189.375 162.875 189.500 176.114 L 189.625 189.353 191.500 190.408 L 193.375 191.462 193.500 177.169 L 193.625 162.875 196.438 162.804 C 199.679 162.723,199.614 162.804,198.287 160.500 L 197.352 158.875 195.048 158.803 L 192.744 158.731 191.434 157.060 C 190.714 156.140,189.593 154.710,188.943 153.882 C 188.293 153.053,187.675 152.260,187.568 152.120 C 187.462 151.979,186.824 151.136,186.151 150.245 C 184.498 148.057,182.684 146.352,181.225 145.613 C 179.717 144.848,176.316 144.720,175.634 145.401 M125.125 148.750 C 126.633 150.262,127.923 151.500,127.991 151.500 C 128.060 151.500,126.883 150.262,125.375 148.750 C 123.867 147.238,122.577 146.000,122.509 146.000 C 122.440 146.000,123.617 147.238,125.125 148.750 M285.743 147.688 L 284.125 149.375 285.813 147.757 C 286.741 146.867,287.500 146.108,287.500 146.070 C 287.500 145.886,287.245 146.120,285.743 147.688 M290.859 147.313 L 290.125 148.125 290.892 147.434 C 291.314 147.054,291.754 146.829,291.870 146.934 C 291.986 147.039,291.999 146.984,291.900 146.813 C 291.663 146.400,291.700 146.382,290.859 147.313 M118.988 157.551 C 128.946 167.570,130.000 168.503,130.000 167.294 C 130.000 167.215,129.862 167.288,129.694 167.456 C 129.453 167.697,127.189 165.575,119.007 157.443 L 108.625 147.125 118.988 157.551 M135.000 148.250 C 135.436 148.800,135.848 149.250,135.917 149.250 C 135.986 149.250,135.686 148.800,135.250 148.250 C 134.814 147.700,134.402 147.250,134.333 147.250 C 134.264 147.250,134.564 147.700,135.000 148.250 M270.620 149.813 L 268.125 152.375 270.688 149.880 C 273.068 147.562,273.364 147.250,273.183 147.250 C 273.146 147.250,271.993 148.403,270.620 149.813 M257.377 150.997 C 256.984 151.408,256.709 151.785,256.768 151.834 C 256.827 151.882,257.195 151.546,257.587 151.086 C 258.471 150.048,258.340 149.992,257.377 150.997 M264.609 151.063 L 263.875 151.875 264.688 151.141 C 265.445 150.456,265.615 150.250,265.422 150.250 C 265.379 150.250,265.013 150.616,264.609 151.063 M286.366 151.563 L 285.125 152.875 286.438 151.634 C 287.159 150.952,287.750 150.361,287.750 150.322 C 287.750 150.135,287.518 150.343,286.366 151.563 M280.993 152.188 L 279.375 153.875 281.063 152.257 C 281.991 151.367,282.750 150.608,282.750 150.570 C 282.750 150.386,282.495 150.620,280.993 152.188 M261.868 153.813 L 260.125 155.625 261.938 153.882 C 263.621 152.263,263.864 152.000,263.681 152.000 C 263.643 152.000,262.827 152.816,261.868 153.813 M140.267 154.682 C 140.589 155.200,140.534 155.325,139.494 156.432 L 138.375 157.625 139.563 156.510 C 140.851 155.301,140.968 154.992,140.335 154.468 C 139.955 154.154,139.949 154.173,140.267 154.682 M126.250 154.578 C 126.250 154.621,126.616 154.987,127.063 155.391 L 127.875 156.125 127.141 155.313 C 126.456 154.555,126.250 154.385,126.250 154.578 M145.609 155.313 L 144.875 156.125 145.688 155.391 C 146.134 154.987,146.500 154.621,146.500 154.578 C 146.500 154.385,146.294 154.555,145.609 155.313 M276.617 156.313 L 275.125 157.875 276.688 156.383 C 277.547 155.562,278.250 154.859,278.250 154.820 C 278.250 154.636,278.003 154.861,276.617 156.313 M281.616 156.063 L 280.375 157.375 281.688 156.134 C 282.409 155.452,283.000 154.861,283.000 154.822 C 283.000 154.635,282.768 154.843,281.616 156.063 M254.750 155.328 C 254.750 155.371,255.116 155.737,255.563 156.141 L 256.375 156.875 255.641 156.063 C 254.956 155.305,254.750 155.135,254.750 155.328 M263.153 156.971 C 262.440 157.701,262.288 157.991,262.540 158.136 C 262.724 158.243,262.788 158.235,262.682 158.118 C 262.576 158.002,262.909 157.478,263.421 156.953 C 263.933 156.429,264.295 156.000,264.226 156.000 C 264.158 156.000,263.675 156.437,263.153 156.971 M128.000 156.319 C 128.000 156.357,128.872 157.228,129.938 158.256 L 131.875 160.125 130.006 158.188 C 128.271 156.388,128.000 156.136,128.000 156.319 M258.375 158.750 C 259.052 159.438,259.662 160.000,259.731 160.000 C 259.800 160.000,259.302 159.438,258.625 158.750 C 257.948 158.063,257.338 157.500,257.269 157.500 C 257.200 157.500,257.698 158.063,258.375 158.750 M277.617 159.813 L 276.125 161.375 277.688 159.883 C 279.139 158.497,279.364 158.250,279.180 158.250 C 279.141 158.250,278.438 158.953,277.617 159.813 M140.000 160.375 C 138.976 161.406,138.194 162.250,138.263 162.250 C 138.331 162.250,139.226 161.406,140.250 160.375 C 141.274 159.344,142.056 158.500,141.987 158.500 C 141.919 158.500,141.024 159.344,140.000 160.375 M202.750 159.357 C 199.070 160.666,198.695 160.965,199.453 161.990 C 199.754 162.397,200.004 162.819,200.008 162.927 C 200.013 163.036,200.235 163.387,200.502 163.708 L 200.988 164.290 202.431 163.743 C 206.942 162.031,211.398 164.329,209.525 167.401 C 208.721 168.719,206.500 169.755,203.688 170.125 L 202.500 170.281 202.500 172.104 L 202.500 173.928 205.074 174.060 C 210.455 174.334,212.857 176.825,211.639 180.869 C 210.664 184.111,207.728 184.491,206.463 181.538 C 205.839 180.082,205.711 180.008,203.800 180.004 C 201.013 179.997,199.886 180.967,199.879 183.379 C 199.874 185.371,200.308 185.881,203.465 187.592 C 206.743 189.369,208.087 190.937,208.743 193.751 C 208.919 194.507,209.107 195.281,209.162 195.472 C 209.336 196.082,211.692 195.634,212.734 194.793 C 213.966 193.799,214.121 192.318,213.075 191.527 C 212.690 191.235,212.066 190.760,211.688 190.470 C 210.563 189.609,210.752 188.783,212.590 186.524 C 216.017 182.314,216.678 179.175,215.088 174.668 C 214.172 172.073,214.161 171.965,214.600 170.035 C 215.100 167.838,215.109 165.939,214.628 164.352 C 214.423 163.677,214.254 163.041,214.253 162.938 C 214.251 162.834,215.825 162.750,217.750 162.750 L 221.250 162.750 221.250 168.625 L 221.250 174.500 219.859 174.500 C 217.032 174.500,216.699 175.643,218.778 178.212 C 223.018 183.452,225.486 184.084,225.496 179.933 L 225.500 178.490 230.813 178.558 L 236.125 178.625 236.192 183.913 L 236.260 189.200 237.817 190.176 C 238.674 190.712,239.572 191.226,239.813 191.318 C 240.226 191.475,240.250 190.716,240.250 177.513 C 240.250 169.828,240.318 163.363,240.402 163.145 C 240.531 162.809,241.112 162.750,244.277 162.750 C 248.427 162.750,248.297 162.827,247.346 160.929 C 246.135 158.511,248.151 158.750,228.932 158.750 L 211.942 158.750 212.064 159.313 C 212.131 159.622,212.271 160.078,212.375 160.325 C 212.520 160.673,212.315 160.609,211.469 160.040 C 209.304 158.584,205.715 158.303,202.750 159.357 M271.868 160.813 L 270.125 162.625 271.938 160.882 C 273.621 159.263,273.864 159.000,273.681 159.000 C 273.643 159.000,272.827 159.816,271.868 160.813 M132.857 161.176 C 133.717 162.106,133.791 162.280,133.491 162.676 C 133.167 163.106,133.173 163.106,133.632 162.685 C 134.102 162.255,134.087 162.221,132.998 161.185 L 131.883 160.125 132.857 161.176 M261.125 161.500 C 261.802 162.188,262.412 162.750,262.481 162.750 C 262.550 162.750,262.052 162.188,261.375 161.500 C 260.698 160.813,260.088 160.250,260.019 160.250 C 259.950 160.250,260.448 160.813,261.125 161.500 M264.500 160.328 C 264.500 160.371,264.866 160.737,265.313 161.141 L 266.125 161.875 265.391 161.063 C 264.706 160.305,264.500 160.135,264.500 160.328 M273.366 163.813 L 272.125 165.125 273.438 163.884 C 274.159 163.202,274.750 162.611,274.750 162.572 C 274.750 162.385,274.518 162.593,273.366 163.813 M236.125 168.625 L 236.125 174.375 230.813 174.442 L 225.500 174.510 225.500 168.625 L 225.500 162.740 230.813 162.808 L 236.125 162.875 236.125 168.625 M234.313 191.258 C 233.369 191.637,233.789 192.917,235.519 194.934 C 236.149 195.668,236.208 195.683,238.394 195.654 C 241.492 195.614,246.627 199.170,250.197 203.829 C 250.783 204.593,252.000 204.036,252.000 203.005 C 252.000 202.199,242.864 193.224,241.125 192.322 C 238.944 191.190,235.730 190.688,234.313 191.258 M220.072 330.875 C 220.073 331.563,220.122 331.814,220.179 331.434 C 220.237 331.054,220.235 330.492,220.176 330.184 C 220.117 329.877,220.070 330.188,220.072 330.875 " stroke="none" fill="#dc7e25" fill-rule="evenodd"></path></g></svg>