<?xml version="1.0" standalone="no"?>
<!DOCTYPE svg PUBLIC "-//W3C//DTD SVG 20010904//EN"
 "http://www.w3.org/TR/2001/REC-SVG-20010904/DTD/svg10.dtd">
<svg version="1.0" xmlns="http://www.w3.org/2000/svg"
 width="3516.000000pt" height="1165.000000pt" viewBox="0 0 3516.000000 1165.000000"
 preserveAspectRatio="xMidYMid meet">

<g transform="translate(0.000000,1165.000000) scale(0.100000,-0.100000)"
fill="#000000" stroke="none">
<path d="M23605 9470 c-136 -15 -252 -67 -325 -146 -51 -56 -76 -109 -89 -195
-31 -190 63 -330 259 -389 36 -11 131 -29 210 -40 217 -30 272 -58 272 -136 0
-32 -7 -45 -40 -75 -108 -102 -358 -76 -496 51 l-46 42 -115 -73 c-63 -41
-115 -77 -115 -81 0 -15 101 -109 151 -140 131 -83 260 -113 448 -105 256 11
400 87 483 254 31 63 33 74 33 168 0 114 -17 165 -76 223 -73 74 -154 102
-399 141 -174 28 -207 37 -236 66 -31 31 -33 91 -3 129 79 100 282 79 431 -45
26 -21 49 -39 52 -39 3 0 55 35 115 79 l110 78 -32 30 c-164 154 -373 226
-592 203z"/>
<path d="M31312 9441 c-29 -10 -66 -31 -82 -46 -54 -52 -62 -84 -70 -282 0 -9
-21 -13 -70 -13 l-70 0 0 -80 0 -80 58 -1 c31 -1 63 -1 70 0 9 2 12 -77 12
-364 l0 -365 135 0 135 0 2 363 3 362 88 3 87 3 0 79 0 80 -91 0 -91 0 4 56
c6 72 21 84 105 84 l63 0 0 104 0 103 -46 7 c-85 11 -187 6 -242 -13z"/>
<path d="M2837 9442 c-9 -2 -17 -9 -17 -15 0 -7 46 -61 102 -122 172 -187 211
-268 211 -440 0 -86 -23 -182 -465 -1947 l-466 -1858 672 0 671 0 34 143 c29
123 59 248 139 587 l18 75 645 3 644 2 101 -402 100 -403 1050 0 c921 0 1223
5 1299 20 11 2 45 7 75 10 245 25 503 109 676 220 69 45 181 150 231 218 l36
48 25 -43 c133 -227 379 -389 692 -456 167 -36 303 -45 568 -39 196 4 267 9
342 25 228 50 401 142 511 275 29 34 54 62 56 62 3 0 18 -41 34 -92 38 -117
85 -180 166 -219 l58 -29 729 -3 c401 -1 733 1 738 6 10 10 -24 54 -148 189
-100 109 -134 160 -164 248 -20 58 -20 81 -20 1997 l0 1938 -695 1 c-382 1
-704 1 -715 1 -11 0 -24 0 -30 -1 -7 -1 -10 -523 -10 -1544 0 -1713 5 -1597
-67 -1691 -82 -107 -207 -161 -368 -161 -151 1 -251 43 -310 134 -58 86 -55 1
-55 1697 l0 1564 -928 0 c-1895 1 -1807 3 -2062 -30 -332 -43 -585 -125 -771
-251 -140 -94 -306 -288 -354 -413 -12 -32 -21 -43 -26 -34 -4 7 -37 132 -74
278 -37 146 -76 281 -86 301 -10 20 -39 55 -64 77 -88 77 10 72 -1426 75 -707
1 -1293 1 -1302 -1z m5737 -307 c14 -14 -3 -53 -174 -395 -105 -209 -190 -382
-190 -385 0 -18 53 25 352 285 183 160 340 289 348 288 8 -2 16 -10 17 -18 2
-8 -114 -170 -256 -360 -143 -189 -257 -348 -255 -352 4 -6 109 55 618 365 87
54 162 97 166 97 14 0 29 -25 22 -36 -4 -6 -149 -143 -322 -303 -173 -161
-313 -296 -310 -299 7 -9 -21 -20 437 164 227 92 420 164 428 160 35 -13 6
-39 -157 -146 -95 -61 -258 -168 -363 -236 -104 -69 -197 -129 -205 -134 -43
-25 19 -19 183 18 685 156 720 163 729 150 4 -7 6 -17 5 -23 -2 -5 -190 -91
-417 -191 -388 -170 -472 -213 -389 -200 19 3 90 8 159 11 69 4 136 8 150 10
14 1 84 6 155 10 72 3 144 8 160 10 17 2 87 6 156 10 108 6 127 5 132 -8 3 -9
0 -20 -6 -25 -7 -6 -210 -60 -452 -122 -242 -62 -442 -114 -444 -116 -9 -8 7
-14 55 -18 78 -8 253 -25 319 -31 54 -5 295 -27 435 -40 111 -11 130 -16 130
-35 0 -21 -19 -26 -130 -35 -41 -3 -86 -8 -100 -10 -14 -2 -63 -7 -110 -10
-47 -4 -96 -8 -110 -10 -14 -2 -59 -6 -100 -10 -41 -3 -91 -8 -110 -10 -19 -2
-89 -9 -155 -15 -114 -11 -134 -15 -124 -24 2 -2 204 -55 449 -118 421 -107
445 -114 448 -137 l4 -23 -139 6 c-76 4 -154 9 -173 11 -19 2 -82 7 -140 10
-58 3 -125 8 -150 10 -25 2 -103 7 -175 11 -71 3 -138 8 -148 10 -11 2 -17 -2
-14 -9 2 -6 156 -78 343 -159 486 -212 487 -213 491 -224 13 -42 -10 -38 -777
137 l-95 21 -17 72 c-38 156 -160 350 -305 485 -184 173 -412 293 -933 491
-526 200 -671 312 -671 519 -1 157 93 259 283 310 96 26 159 33 293 33 166 0
349 -35 497 -93 27 -10 53 -19 58 -19 9 0 81 86 355 426 160 198 215 264 220
264 2 0 11 -7 19 -15z m-2941 -550 l118 -70 -6 -45 c-11 -86 -11 -86 -63 -39
-157 142 -211 199 -206 214 9 24 27 17 157 -60z m-1247 -1913 c-241 -1 -441
-1 -443 1 -1 2 24 114 58 248 33 134 128 516 210 849 82 333 155 623 161 645
10 38 22 -6 232 -850 l222 -890 -440 -3z m1106 1587 l227 -91 3 -84 c2 -46 0
-84 -4 -84 -7 0 -465 295 -482 311 -12 10 0 39 16 39 7 0 115 -41 240 -91z
m-157 -309 c127 -28 270 -60 320 -71 49 -11 90 -21 91 -22 1 -1 11 -36 24 -77
12 -41 31 -92 42 -114 14 -27 16 -37 6 -34 -72 29 -755 332 -762 338 -13 13
13 41 33 36 9 -3 120 -28 246 -56z m-90 -326 c39 -2 97 -7 130 -9 33 -2 116
-7 185 -11 69 -4 132 -8 140 -10 8 -1 44 -3 80 -3 l65 -1 52 -77 c95 -143 272
-297 457 -398 115 -62 332 -152 541 -225 302 -104 396 -140 499 -192 165 -82
255 -160 304 -266 35 -76 37 -183 3 -257 -43 -97 -160 -179 -321 -225 -56 -16
-114 -23 -225 -27 -132 -5 -161 -3 -237 16 -48 12 -114 33 -147 47 -34 13 -63
24 -65 24 -3 0 -124 -148 -270 -328 -145 -181 -271 -334 -280 -341 -17 -14
-36 -7 -36 14 0 17 75 176 238 502 73 144 128 264 123 267 -4 3 -158 -125
-341 -284 -184 -160 -340 -290 -347 -290 -42 0 -13 46 228 368 140 185 255
343 257 350 7 26 29 38 -586 -337 -100 -61 -189 -111 -197 -111 -19 0 -28 17
-18 33 4 8 149 144 321 304 276 256 336 318 297 305 -5 -2 -196 -78 -422 -169
-227 -91 -420 -163 -428 -159 -34 13 -8 38 128 125 570 369 632 411 598 411
-7 0 -199 -42 -429 -94 -229 -52 -431 -97 -448 -100 -24 -5 -33 -3 -38 9 -3 9
-4 20 -2 23 2 4 46 25 96 47 705 306 793 348 718 340 -13 -2 -84 -6 -158 -10
-74 -4 -142 -9 -150 -10 -8 -2 -85 -6 -170 -10 -85 -4 -157 -8 -160 -10 -3 -1
-67 -6 -143 -10 l-139 -7 4 23 c3 22 21 28 248 86 135 35 336 86 448 115 187
48 236 67 180 69 -13 0 -30 2 -38 3 -8 2 -55 7 -105 10 -49 4 -103 9 -120 12
-16 2 -111 11 -210 19 -99 9 -196 17 -215 20 -19 2 -66 6 -105 10 -108 9 -125
14 -125 36 0 10 1 19 3 19 41 7 235 26 402 40 66 6 140 13 165 15 25 3 99 10
165 15 180 16 217 22 204 34 -2 2 -123 34 -269 71 -677 173 -625 158 -628 184
l-4 24 114 -7 c62 -4 145 -9 183 -12z m3817 -1192 c150 -98 303 -197 341 -221
66 -43 82 -66 52 -77 -12 -5 -638 237 -654 252 -3 2 -6 46 -8 97 -2 50 -5 100
-7 110 -2 9 -3 17 -1 17 2 0 126 -80 277 -178z m92 -509 c53 -50 76 -78 72
-89 -3 -8 -14 -14 -24 -12 -10 2 -111 59 -225 128 -184 112 -206 127 -202 148
2 13 7 54 11 93 l7 69 141 -132 c77 -73 176 -165 220 -205z m-323 -208 c96
-127 113 -165 77 -165 -10 0 -158 120 -221 179 -7 7 29 121 39 121 2 0 49 -61
105 -135z"/>
<path d="M12480 9439 c-33 -13 -78 -57 -97 -93 -19 -37 -20 -124 0 -161 31
-61 104 -105 169 -105 49 1 112 33 144 75 37 49 45 142 16 195 -33 60 -84 93
-150 97 -31 1 -68 -2 -82 -8z m159 -41 c36 -23 70 -86 71 -131 0 -71 -56 -140
-128 -156 -58 -12 -104 2 -147 44 -37 38 -51 84 -41 143 17 108 146 160 245
100z"/>
<path d="M12480 9267 c0 -96 1 -103 20 -104 17 -2 20 4 20 38 0 51 22 52 50 1
12 -22 30 -38 41 -39 23 -2 24 9 3 48 -14 28 -14 32 0 48 22 24 20 74 -2 94
-13 12 -37 17 -75 17 l-57 0 0 -103z m84 63 c43 -16 33 -46 -19 -56 -23 -4
-25 -1 -25 31 0 38 5 40 44 25z"/>
<path d="M13490 9442 c-6 -2 -10 -224 -10 -618 l0 -614 155 0 155 0 0 614 0
615 -145 3 c-80 2 -150 2 -155 0z"/>
<path d="M16201 9437 c-5 -7 -106 -273 -224 -592 -119 -319 -220 -592 -226
-608 l-11 -27 167 2 167 3 26 80 c14 44 28 86 31 93 3 10 55 13 229 13 l225 0
27 -78 c14 -43 27 -86 27 -95 1 -16 16 -18 171 -18 l170 0 -19 48 c-10 26
-112 302 -227 615 l-208 567 -141 1 c-77 0 -148 2 -157 4 -9 2 -21 -2 -27 -8z
m234 -548 c41 -134 75 -247 75 -251 0 -5 -68 -8 -151 -8 -139 0 -151 1 -146
18 2 9 29 99 60 199 31 101 61 207 68 238 7 30 14 54 15 52 2 -2 37 -113 79
-248z"/>
<path d="M18138 9442 l-468 -2 0 -615 0 -615 155 0 155 0 2 246 3 245 293 -1
292 -1 0 126 0 125 -295 0 -295 0 0 125 0 125 303 1 c166 1 310 1 320 0 15 -2
17 9 17 118 0 66 -3 121 -7 123 -5 2 -218 2 -475 0z"/>
<path d="M25318 9443 c-2 -5 -2 -284 0 -620 l2 -613 135 0 134 0 3 303 c3 345
5 354 82 388 66 29 141 6 173 -54 16 -28 18 -68 21 -334 l3 -303 135 0 135 0
-3 363 c-3 353 -4 363 -26 412 -50 109 -135 160 -267 159 -66 0 -90 -4 -135
-26 -30 -15 -70 -39 -87 -54 l-33 -27 0 207 0 206 -134 0 c-74 0 -136 -3 -138
-7z"/>
<path d="M19740 8825 l0 -615 140 0 140 0 0 615 -1 615 -139 0 -140 0 0 -615z"/>
<path d="M28460 8825 l0 -615 140 0 140 0 0 615 -1 615 -139 0 -140 0 0 -615z"/>
<path d="M20280 9245 l0 -144 -67 -3 -68 -3 0 -77 0 -78 67 0 68 0 0 -277 c0
-161 4 -294 10 -315 14 -49 53 -94 103 -120 47 -23 171 -35 261 -24 l56 7 0
109 0 108 -63 -2 c-101 -2 -97 -14 -97 270 l0 244 88 0 88 0 -1 78 0 77 -87 3
-88 3 0 144 0 145 -135 0 -135 0 0 -145z"/>
<path d="M14867 9139 c-150 -22 -253 -112 -272 -236 l-6 -43 135 0 136 0 14
34 c17 42 48 63 103 72 54 8 98 -9 112 -45 16 -37 21 -100 9 -107 -5 -3 -62
-17 -126 -30 -64 -13 -147 -33 -184 -44 -164 -50 -258 -189 -228 -335 40 -194
254 -278 463 -183 37 17 72 37 78 44 19 23 29 16 29 -21 l0 -35 136 0 c126 0
135 1 123 17 -11 13 -14 85 -16 357 -2 200 -7 357 -13 379 -14 50 -62 103
-120 132 -89 45 -244 64 -373 44z m234 -516 c5 -90 -23 -160 -81 -202 -55 -40
-98 -48 -143 -26 -77 36 -74 126 7 167 37 19 190 75 209 77 4 1 7 -7 8 -16z"/>
<path d="M21144 9132 c-80 -24 -139 -60 -195 -119 -59 -62 -85 -108 -109 -196
-35 -127 -23 -282 32 -397 27 -56 120 -150 177 -179 145 -75 360 -79 507 -10
197 93 298 371 219 606 -49 144 -137 236 -274 285 -82 29 -274 34 -357 10z
m265 -216 c40 -21 86 -79 100 -128 22 -71 22 -177 2 -237 -25 -71 -49 -101
-102 -129 -36 -19 -56 -23 -111 -20 -56 3 -73 8 -105 34 -21 17 -51 56 -68 89
-26 53 -30 69 -29 146 1 74 5 96 28 143 15 31 42 67 60 81 56 43 163 53 225
21z"/>
<path d="M22430 9143 c-78 -9 -134 -27 -175 -59 l-45 -34 0 35 0 35 -141 0
c-125 0 -140 -2 -135 -16 3 -9 6 -213 6 -455 l0 -439 135 0 135 0 1 303 c1
326 4 355 52 391 36 27 122 28 161 2 53 -34 56 -58 56 -391 l0 -305 136 0 135
0 -3 378 c-3 373 -3 378 -27 425 -27 55 -70 91 -132 112 -45 15 -115 22 -159
18z"/>
<path d="M24730 9144 c-205 -40 -337 -180 -371 -394 -13 -78 -4 -193 21 -272
61 -196 236 -308 463 -296 73 4 96 10 159 41 40 19 93 55 117 79 45 44 97 115
90 122 -2 2 -48 27 -101 55 l-97 52 -17 -37 c-21 -44 -81 -89 -129 -98 -82
-16 -166 36 -206 126 -19 43 -23 71 -24 143 0 83 3 96 33 158 46 93 109 129
195 113 40 -7 115 -68 128 -104 9 -22 11 -23 32 -10 12 8 57 34 100 58 42 24
77 47 77 51 0 4 -18 29 -39 56 -75 95 -192 152 -326 158 -44 2 -91 1 -105 -1z"/>
<path d="M26593 9135 c-214 -58 -333 -226 -333 -470 0 -158 41 -265 137 -356
118 -111 311 -155 496 -112 247 57 388 299 336 578 -35 188 -176 331 -358 365
-76 14 -216 11 -278 -5z m253 -221 c72 -34 114 -123 116 -244 3 -170 -76 -270
-212 -270 -104 0 -178 62 -207 172 -42 163 22 322 142 352 60 16 114 12 161
-10z"/>
<path d="M27693 9136 c-168 -41 -292 -171 -329 -345 -51 -240 41 -464 229
-556 157 -76 394 -69 529 16 136 87 208 228 210 410 2 249 -143 437 -366 478
-77 14 -207 13 -273 -3z m244 -220 c82 -42 124 -139 118 -271 -5 -120 -43
-191 -119 -226 -81 -37 -187 -18 -242 43 -102 111 -87 357 26 438 53 38 160
46 217 16z"/>
<path d="M29118 9131 c-72 -24 -117 -52 -162 -101 -51 -57 -69 -104 -69 -185
-1 -167 112 -249 398 -290 70 -10 114 -30 124 -57 33 -90 -148 -138 -282 -76
-32 15 -77 43 -100 62 l-42 34 -85 -79 -85 -79 40 -35 c55 -48 158 -100 235
-120 79 -21 235 -24 310 -6 185 44 290 154 291 305 2 174 -91 241 -434 311
-60 13 -81 22 -93 40 -21 32 -10 60 30 79 67 32 179 14 269 -44 l48 -30 84 77
84 77 -27 19 c-43 29 -122 68 -182 89 -82 30 -275 35 -352 9z"/>
<path d="M30340 9136 c-112 -31 -211 -101 -265 -186 -61 -97 -90 -268 -66
-395 24 -130 102 -244 212 -308 140 -82 371 -87 521 -11 219 111 306 423 186
672 -53 112 -184 208 -312 231 -78 14 -219 13 -276 -3z m249 -221 c122 -63
159 -300 69 -436 -63 -95 -230 -107 -310 -22 -49 51 -70 116 -70 215 0 75 3
96 27 143 14 30 41 67 60 80 54 42 164 52 224 20z"/>
<path d="M14088 9122 l-118 -3 0 -454 0 -455 135 0 135 0 1 273 c0 292 5 326
50 359 14 11 65 26 117 35 l92 17 0 118 0 118 -28 0 c-45 0 -133 -29 -183 -61
-25 -16 -48 -29 -51 -29 -3 0 -4 12 -3 28 2 34 -3 50 -18 54 -7 2 -65 2 -129
0z"/>
<path d="M18733 8753 c4 -408 5 -415 69 -488 53 -60 109 -80 223 -80 97 1 154
19 221 70 36 27 43 24 39 -17 l-3 -28 139 0 139 0 0 455 0 456 -137 -3 -138
-3 -2 -313 c-2 -353 -1 -348 -76 -383 -50 -22 -86 -24 -132 -5 -69 29 -70 33
-70 388 l0 318 -138 0 -138 0 4 -367z"/>
<path d="M17040 8355 l0 -145 140 0 140 0 0 145 0 145 -140 0 -140 0 0 -145z"/>
<path d="M19862 7436 c2 -121 6 -220 11 -218 4 1 129 2 277 2 l270 0 0 220 0
220 -280 -1 -280 -1 2 -222z"/>
<path d="M28300 7440 l0 -220 270 0 c149 0 273 0 278 0 4 0 8 99 10 219 l2
219 -280 1 -280 1 0 -220z"/>
<path d="M13480 6355 l0 -1295 1015 0 1015 0 0 255 0 255 -689 0 -689 0 -5 22
c-4 12 -6 150 -6 305 0 216 2 283 12 283 7 0 274 0 595 0 l582 0 0 250 0 250
-592 2 -593 3 -2 218 c-1 120 1 225 4 233 4 12 97 14 634 14 l629 0 0 250 0
250 -955 0 -955 0 0 -1295z"/>
<path d="M23485 7029 c-398 -58 -666 -310 -770 -723 -28 -113 -36 -186 -36
-340 1 -504 267 -853 726 -952 110 -24 293 -28 412 -10 244 37 435 136 604
313 83 87 183 223 172 234 -5 3 -100 54 -213 112 l-206 105 -39 -71 c-105
-187 -264 -276 -472 -264 -76 4 -106 11 -163 38 -141 65 -232 206 -242 374
l-3 50 683 3 682 2 0 73 c0 107 -36 334 -70 436 -107 327 -325 531 -650 606
-86 20 -321 28 -415 14z m348 -437 c110 -54 179 -155 194 -284 l6 -48 -387 0
c-212 0 -386 3 -386 6 0 18 35 124 52 157 27 53 93 123 145 154 72 42 120 53
219 50 79 -2 100 -7 157 -35z"/>
<path d="M25605 7029 c-501 -73 -808 -471 -807 -1050 0 -537 293 -900 785
-973 238 -36 453 -6 656 90 164 77 311 207 429 377 l53 76 -73 37 c-40 20
-136 70 -214 110 l-141 73 -42 -75 c-99 -174 -248 -264 -436 -264 -128 0 -237
43 -314 125 -73 78 -113 169 -125 293 l-6 52 686 0 687 0 -7 109 c-17 297 -83
515 -206 681 -123 166 -304 280 -515 325 -91 20 -318 27 -410 14z m348 -437
c109 -54 170 -141 195 -280 l9 -52 -388 0 c-214 0 -389 4 -389 8 0 5 7 33 16
63 41 137 116 222 243 276 48 20 69 23 152 21 84 -3 103 -7 162 -36z"/>
<path d="M16805 7023 c-157 -17 -282 -51 -353 -95 -20 -12 -61 -44 -89 -72
l-53 -49 0 82 0 81 -285 0 -285 0 0 -955 0 -955 284 0 285 0 3 638 c4 694 3
683 62 773 80 120 322 133 431 24 77 -76 75 -60 75 -792 l0 -643 286 0 285 0
-4 753 c-5 828 -4 822 -68 949 -74 149 -252 247 -474 260 -38 3 -83 3 -100 1z"/>
<path d="M21761 7018 c-165 -17 -301 -73 -391 -159 l-50 -48 0 80 0 79 -285 0
-285 0 0 -955 0 -955 280 0 280 0 0 555 c0 721 10 807 100 889 115 104 348 81
430 -42 49 -74 49 -78 49 -799 l1 -603 280 0 281 0 -3 768 c-4 764 -4 767 -26
841 -30 97 -62 150 -126 208 -122 112 -320 164 -535 141z"/>
<path d="M30205 7019 c-160 -15 -307 -74 -395 -161 l-50 -49 0 80 0 81 -285 0
-285 0 0 -955 0 -955 283 2 282 3 2 560 c1 625 4 709 29 779 39 114 144 173
290 164 142 -9 227 -87 245 -225 4 -37 8 -341 9 -675 l0 -608 280 0 280 0 0
738 c-1 783 -2 808 -50 935 -73 195 -334 313 -635 286z"/>
<path d="M18335 7000 c-346 -55 -589 -326 -650 -727 -17 -106 -18 -312 -4
-408 66 -435 344 -698 749 -710 184 -5 310 23 447 102 42 23 79 43 82 43 12 0
4 -327 -9 -366 -32 -97 -101 -152 -214 -173 -126 -23 -242 -5 -329 51 -70 45
-104 103 -122 211 l-6 37 -291 0 -291 0 6 -97 c6 -117 33 -206 86 -283 94
-138 293 -242 541 -285 97 -17 353 -23 440 -10 132 19 176 27 256 51 263 76
419 220 472 434 27 111 32 292 32 1188 l-1 922 -267 0 -267 0 3 -70 c6 -104 1
-110 -55 -60 -62 54 -151 103 -238 130 -80 25 -271 35 -370 20z m458 -463
c129 -76 175 -219 164 -512 -8 -212 -55 -332 -153 -395 -128 -81 -352 -58
-443 46 -77 87 -104 187 -104 389 0 229 37 362 126 442 53 48 99 65 187 72 90
8 161 -6 223 -42z"/>
<path d="M31778 7000 c-340 -58 -560 -295 -644 -695 -26 -124 -23 -380 6 -510
54 -240 158 -405 327 -515 144 -95 281 -131 473 -125 169 5 325 53 444 138
l28 20 -4 -184 c-5 -211 -15 -248 -81 -304 -61 -53 -123 -70 -252 -70 -99 1
-116 3 -172 29 -105 48 -173 146 -173 248 l0 28 -296 0 -297 0 7 -89 c12 -163
61 -276 161 -369 154 -144 405 -224 705 -224 360 1 613 74 776 226 79 72 120
141 155 256 l23 75 4 1023 3 1022 -266 0 -265 0 0 -85 0 -86 -61 49 c-70 57
-163 105 -247 128 -64 18 -280 26 -354 14z m417 -441 c84 -31 149 -101 175
-187 29 -97 39 -200 35 -342 -8 -237 -67 -361 -200 -422 -74 -33 -228 -33
-303 1 -149 67 -212 233 -199 526 8 183 47 300 126 372 83 78 239 100 366 52z"/>
<path d="M27962 6985 c-155 -29 -283 -81 -380 -155 -29 -22 -55 -40 -57 -40
-3 0 -5 43 -5 95 l0 95 -277 -2 -278 -3 0 -955 0 -955 283 -3 282 -2 1 552 c1
567 2 619 20 676 14 41 62 98 101 118 41 21 166 52 283 70 55 8 108 17 118 20
16 5 17 26 17 255 0 231 -1 249 -17 248 -10 -1 -51 -7 -91 -14z"/>
<path d="M19860 6020 l0 -960 280 0 280 0 0 960 0 960 -280 0 -280 0 0 -960z"/>
<path d="M28300 6020 l0 -960 280 0 280 0 0 960 0 960 -280 0 -280 0 0 -960z"/>
<path d="M10336 3678 c-232 -21 -396 -131 -457 -304 -63 -178 -11 -368 126
-458 95 -64 163 -83 450 -126 198 -30 255 -63 255 -147 0 -74 -103 -146 -222
-156 -131 -11 -310 48 -402 133 l-45 42 -131 -83 c-71 -46 -130 -87 -130 -92
0 -5 29 -38 64 -72 151 -148 349 -216 606 -210 262 7 436 87 540 247 52 80 74
166 68 270 -8 142 -78 247 -203 304 -61 28 -219 66 -350 83 -243 33 -295 59
-295 144 0 89 81 146 206 147 119 0 211 -35 313 -120 l61 -50 129 92 130 93
-42 38 c-62 55 -194 140 -263 169 -118 50 -259 70 -408 56z"/>
<path d="M2727 3643 c-3 -5 -87 -228 -187 -498 -100 -269 -215 -581 -257 -693
-42 -112 -73 -205 -70 -208 3 -4 266 -7 367 -4 6 0 10 5 10 11 0 6 14 55 31
110 l31 99 258 0 259 0 32 -102 c18 -57 35 -107 39 -111 4 -5 90 -8 191 -8
141 1 183 4 181 13 -3 11 -488 1331 -507 1381 -6 15 -25 17 -190 17 -101 0
-186 -3 -188 -7z m273 -635 l87 -283 -170 -3 c-93 -1 -172 -1 -174 2 -2 2 22
91 55 198 33 106 70 234 83 285 13 51 25 90 27 88 2 -2 43 -131 92 -287z"/>
<path d="M4480 3530 l0 -120 155 0 155 0 0 120 0 120 -155 0 -155 0 0 -120z"/>
<path d="M15193 3153 c4 -536 5 -548 60 -663 80 -171 285 -281 527 -283 199
-2 353 55 471 172 36 36 76 87 88 114 54 112 54 116 58 655 l4 502 -175 0
-176 0 -1 -437 c-1 -241 -3 -460 -5 -488 -5 -85 -23 -132 -65 -169 -45 -42
-92 -56 -181 -56 -123 0 -219 54 -233 133 -3 18 -8 41 -10 52 -2 11 -4 233 -4
493 l-1 472 -181 0 -180 0 4 -497z"/>
<path d="M17730 3530 l0 -121 153 3 152 3 -1 35 c0 19 -1 72 -2 118 l-2 82
-150 0 -150 0 0 -120z"/>
<path d="M22190 3530 l0 -120 155 0 155 0 0 120 0 120 -155 0 -155 0 0 -120z"/>
<path d="M11388 3582 l-138 -3 0 -159 0 -160 -75 0 -75 0 0 -95 0 -95 75 0 75
0 1 -297 c0 -164 3 -311 5 -328 14 -100 75 -173 165 -199 54 -17 183 -21 277
-9 l53 6 -3 121 -3 121 -66 -3 c-54 -2 -70 1 -92 18 l-27 21 0 275 0 274 100
0 100 0 0 95 0 95 -100 0 -100 0 0 159 c0 143 -2 159 -17 162 -10 2 -80 3
-155 1z"/>
<path d="M13163 3582 l-123 -3 0 -159 0 -159 -77 -3 -78 -3 0 -90 0 -90 78 -3
77 -3 0 -313 c0 -333 4 -372 50 -436 12 -17 45 -43 73 -58 50 -26 58 -27 204
-27 83 0 155 4 160 8 13 14 14 237 0 238 -7 0 -42 1 -79 2 -107 3 -103 -9
-105 297 -1 143 0 267 3 275 5 12 26 15 105 15 l99 0 0 95 0 95 -100 0 -100 0
0 160 c0 88 -3 160 -7 161 -40 3 -75 4 -180 1z"/>
<path d="M22922 3582 l-133 -3 1 -147 c1 -81 1 -153 1 -159 -1 -9 -23 -13 -76
-13 l-75 0 0 -95 0 -95 75 0 c71 0 75 -1 75 -22 0 -306 9 -630 20 -663 18 -59
84 -119 150 -139 53 -16 216 -21 298 -9 l32 5 0 122 0 121 -76 0 c-118 0 -114
-11 -114 316 l0 269 104 0 104 0 -1 93 -2 92 -102 3 -103 3 -2 162 c-3 154 -4
162 -23 162 -11 0 -80 -1 -153 -3z"/>
<path d="M6465 3309 c-228 -31 -385 -166 -440 -379 -23 -87 -23 -254 -1 -340
50 -187 190 -321 383 -366 76 -18 222 -20 298 -5 222 44 366 191 411 417 28
144 1 317 -69 436 -61 105 -193 198 -322 227 -63 14 -194 19 -260 10z m180
-250 c58 -16 126 -90 148 -160 22 -69 23 -206 3 -274 -38 -126 -151 -192 -282
-165 -51 10 -66 19 -109 64 -68 69 -89 138 -83 262 5 104 31 174 83 224 53 51
155 72 240 49z"/>
<path d="M14058 3310 c-269 -48 -428 -257 -429 -563 0 -185 51 -321 158 -418
93 -84 185 -119 333 -126 216 -11 378 63 505 227 25 32 45 63 45 69 0 8 -208
121 -223 121 -3 0 -17 -20 -31 -44 -37 -63 -98 -112 -158 -126 -103 -25 -205
3 -260 71 -27 34 -64 151 -53 169 3 5 147 9 363 9 196 0 363 1 370 1 11 0 12
17 7 83 -22 267 -137 437 -342 506 -69 23 -214 34 -285 21z m189 -235 c64 -27
102 -77 116 -152 l7 -33 -210 0 c-236 0 -227 -3 -191 75 20 44 59 84 106 108
39 21 125 21 172 2z"/>
<path d="M19611 3304 c-257 -44 -414 -262 -412 -574 1 -165 47 -287 145 -386
98 -98 219 -144 377 -144 93 0 210 25 276 59 22 11 63 38 91 60 53 43 151 157
152 178 0 9 -206 123 -224 123 -2 0 -16 -20 -30 -44 -53 -91 -134 -136 -243
-136 -62 0 -142 37 -176 82 -28 36 -63 151 -52 168 4 7 134 10 373 10 l367 -1
-3 80 c-9 256 -132 440 -341 511 -76 25 -201 31 -300 14z m214 -233 c59 -27
89 -68 109 -153 l6 -28 -210 0 c-236 0 -227 -3 -191 75 20 44 59 84 106 108
41 22 131 21 180 -2z"/>
<path d="M21460 3308 c-75 -12 -169 -58 -225 -109 -113 -105 -138 -268 -59
-392 51 -78 166 -131 354 -161 121 -20 162 -32 188 -56 25 -23 27 -38 11 -74
-20 -43 -72 -61 -179 -61 -85 0 -101 3 -150 29 -30 15 -77 46 -103 68 l-49 41
-41 -39 c-105 -97 -147 -139 -147 -146 0 -16 125 -101 193 -132 101 -46 156
-58 282 -62 234 -7 412 73 484 216 40 80 48 151 26 226 -40 140 -147 206 -418
260 -158 31 -190 48 -185 97 8 81 175 95 308 27 25 -12 56 -31 70 -41 l26 -17
94 88 95 88 -25 20 c-40 34 -161 90 -241 112 -85 23 -229 31 -309 18z"/>
<path d="M7765 3296 c-72 -18 -117 -40 -144 -70 -33 -35 -41 -33 -41 14 l0 40
-155 0 -155 0 0 -522 0 -523 154 0 155 0 3 355 c3 335 4 357 24 394 29 56 75
79 145 73 67 -6 101 -26 123 -72 14 -28 16 -85 16 -389 0 -196 3 -356 8 -356
4 0 74 -1 155 -3 l148 -2 -3 430 c-3 429 -3 430 -27 483 -28 62 -85 114 -150
138 -58 21 -191 26 -256 10z"/>
<path d="M8690 3299 c-163 -28 -287 -143 -293 -272 l-2 -42 150 -3 150 -2 20
42 c26 55 68 79 139 80 90 2 119 -29 120 -132 l1 -44 -135 -28 c-183 -37 -245
-55 -313 -91 -258 -136 -232 -492 42 -582 84 -28 218 -17 305 23 36 17 82 43
101 58 l35 26 0 -48 0 -49 147 2 c82 2 149 3 149 3 1 0 -4 17 -12 38 -9 28
-13 130 -14 412 0 251 -4 387 -12 413 -27 89 -128 163 -262 191 -76 16 -237
18 -316 5z m285 -631 c-4 -34 -13 -78 -21 -98 -46 -110 -189 -167 -263 -104
-55 46 -49 127 13 167 25 17 241 95 264 96 10 1 12 -13 7 -61z"/>
<path d="M12195 3299 c-167 -31 -285 -141 -297 -274 l-3 -40 153 -1 153 -2 16
39 c20 52 65 79 135 80 30 1 64 -4 76 -10 32 -17 52 -63 52 -119 l0 -48 -122
-23 c-157 -30 -282 -66 -334 -96 -191 -112 -230 -340 -85 -498 110 -119 339
-131 502 -26 33 22 62 39 64 39 3 0 5 -18 5 -40 0 -22 3 -40 8 -40 95 -5 292
-3 292 3 0 5 -4 16 -9 26 -5 9 -11 196 -13 417 -3 390 -4 400 -25 440 -47 88
-130 142 -262 170 -76 15 -231 17 -306 3z m282 -634 c-10 -132 -83 -215 -197
-223 -55 -4 -61 -2 -90 26 -28 28 -36 57 -30 102 3 21 39 59 75 77 35 19 214
81 234 82 11 1 13 -13 8 -64z"/>
<path d="M17114 3300 c-69 -13 -134 -42 -163 -74 -33 -35 -41 -33 -41 14 l0
40 -155 0 -155 0 0 -522 0 -523 147 2 c82 2 151 3 155 3 4 0 8 159 10 353 3
318 5 356 21 389 23 46 54 67 112 75 57 7 126 -18 152 -55 16 -25 18 -60 23
-396 l5 -368 153 -2 153 -1 -3 430 c-3 429 -3 430 -27 483 -28 63 -85 115
-150 137 -58 20 -170 27 -237 15z"/>
<path d="M4268 3284 c-76 -14 -147 -43 -195 -80 l-33 -25 0 50 0 51 -155 0
-155 0 3 -521 2 -520 148 -1 c81 0 150 1 152 4 3 3 6 151 8 331 2 311 3 327
23 354 29 39 75 59 178 77 49 9 91 17 93 19 2 3 2 65 1 139 l-3 134 -67 -12z"/>
<path d="M4513 3282 l-33 -3 0 -520 0 -519 28 0 c164 -1 259 -2 270 -1 10 1
12 109 10 523 l-3 522 -120 0 c-66 1 -135 0 -152 -2z"/>
<path d="M17734 3281 c-2 -2 -4 -239 -4 -525 l0 -521 146 2 c80 1 148 4 150 6
10 10 9 1037 -1 1037 -113 4 -288 4 -291 1z"/>
<path d="M20424 3281 c-2 -2 -4 -239 -4 -525 l0 -521 155 0 155 0 0 323 c0
374 1 380 74 413 40 17 75 25 192 44 29 5 31 8 29 43 -1 20 -3 81 -4 135 l-1
97 -31 0 c-46 0 -175 -46 -225 -81 l-44 -30 0 50 0 50 -146 3 c-80 2 -148 1
-150 -1z"/>
<path d="M22194 3275 c-2 -5 -3 -241 -2 -524 l3 -513 150 1 150 0 3 520 2 520
-151 3 c-95 2 -153 -1 -155 -7z"/>
<path d="M5011 3205 c-1 -42 1 -96 5 -120 l6 -44 217 0 c119 0 229 -1 244 -1
26 0 -1 -30 -252 -287 l-280 -287 1 -113 1 -112 466 -3 c256 -2 472 -1 479 1
9 2 12 35 12 122 l0 119 -276 0 -276 0 276 282 276 281 0 119 0 118 -449 0
-448 0 -2 -75z"/>
<path d="M18163 3273 c3 -5 78 -235 167 -513 89 -278 166 -509 171 -514 7 -8
318 -11 324 -4 2 3 311 954 330 1016 l6 22 -159 0 -160 0 -66 -267 c-36 -148
-73 -312 -83 -367 -20 -113 -21 -113 -58 64 -24 112 -91 377 -131 518 l-15 52
-165 0 c-91 0 -163 -3 -161 -7z"/>
<path d="M23420 3270 c0 -5 72 -243 160 -527 91 -292 159 -531 158 -547 -5
-55 -43 -70 -189 -74 l-46 -2 1 -117 1 -118 144 -3 c186 -3 230 8 295 78 26
28 58 74 70 103 24 54 396 1188 396 1206 0 7 -56 11 -163 11 l-163 0 -78 -347
c-44 -192 -82 -356 -86 -366 -6 -18 -33 90 -142 570 l-33 143 -162 0 c-100 0
-163 -4 -163 -10z"/>
</g>
</svg>
