<?xml version="1.0" standalone="no"?>
<!DOCTYPE svg PUBLIC "-//W3C//DTD SVG 20010904//EN"
 "http://www.w3.org/TR/2001/REC-SVG-20010904/DTD/svg10.dtd">
<svg version="1.0" xmlns="http://www.w3.org/2000/svg"
 width="590.000000pt" height="291.000000pt" viewBox="0 0 590.000000 291.000000"
 preserveAspectRatio="xMidYMid meet">

<g transform="translate(0.000000,291.000000) scale(0.100000,-0.100000)"
fill="#000000" stroke="none">
<path d="M170 2355 c0 -3 16 -25 35 -51 24 -32 35 -56 35 -80 0 -19 -52 -241
-115 -494 -63 -253 -115 -462 -115 -465 0 -3 76 -5 168 -5 l168 0 25 103 24
102 159 0 159 0 26 -100 26 -100 270 -1 c149 -1 302 2 340 7 79 11 184 57 213
94 l18 23 29 -35 c47 -59 121 -87 248 -91 123 -5 178 7 237 49 37 27 39 27 45
9 3 -11 18 -29 32 -40 24 -18 40 -20 203 -20 97 0 180 3 183 7 4 3 -11 26 -33
49 l-40 44 -1 452 c-2 387 -3 496 -8 541 -1 4 -82 7 -181 7 l-180 0 0 -395 0
-396 -24 -24 c-30 -30 -65 -39 -111 -31 -64 12 -65 17 -65 456 l0 390 -347 0
c-192 0 -379 -5 -418 -10 -118 -18 -214 -73 -253 -145 l-15 -30 -19 75 c-29
117 -5 110 -389 110 -181 0 -329 -2 -329 -5z m1386 -174 c-26 -50 -43 -91 -40
-91 4 0 37 26 73 57 101 87 106 91 96 73 -5 -8 -36 -51 -69 -94 -33 -44 -52
-77 -44 -73 9 3 53 29 98 57 46 28 85 49 87 47 2 -3 -33 -39 -78 -81 -45 -42
-79 -76 -76 -76 4 0 51 18 104 40 53 22 100 39 105 38 5 -2 -32 -30 -82 -62
-50 -32 -89 -60 -87 -63 2 -2 53 8 112 22 114 27 143 27 79 0 -84 -35 -159
-69 -167 -75 -7 -6 29 -5 158 5 88 7 74 -6 -40 -35 -110 -28 -133 -39 -85 -40
120 -2 262 -28 165 -30 -22 -1 -49 -3 -60 -5 -11 -2 -47 -6 -80 -10 l-60 -8
108 -27 c60 -16 111 -31 115 -35 4 -3 -47 -4 -113 0 l-120 6 108 -47 c59 -26
105 -49 103 -51 -2 -3 -50 5 -106 18 l-101 23 -20 46 c-38 89 -122 149 -303
219 -141 54 -184 98 -157 157 23 50 123 68 228 41 l52 -14 67 84 c36 46 68 82
71 80 2 -3 -16 -46 -41 -96z m-680 -44 c16 -14 23 -26 17 -30 -5 -3 -23 7 -38
23 -34 35 -18 40 21 7z m-266 -248 c27 -113 50 -209 50 -212 0 -4 -47 -7 -105
-7 -64 0 -105 4 -105 10 0 17 102 421 106 417 2 -1 26 -95 54 -208z m225 172
c37 -14 51 -25 53 -42 4 -22 4 -22 -25 -4 -110 71 -114 79 -28 46z m-17 -81
c70 -14 77 -18 86 -48 8 -23 7 -23 -26 -9 -98 43 -148 67 -148 73 0 3 6 4 14
1 8 -3 41 -11 74 -17z m150 -139 c58 -58 83 -71 272 -142 140 -53 184 -117
122 -179 -41 -41 -120 -50 -208 -25 -17 5 -32 -8 -85 -74 -35 -44 -67 -80 -72
-81 -4 0 13 41 39 91 25 50 44 93 42 95 -2 2 -40 -28 -85 -66 -45 -39 -84 -70
-88 -70 -3 0 20 35 53 78 79 104 83 111 52 91 -49 -31 -169 -99 -175 -99 -4 0
27 32 69 71 42 40 75 73 73 76 -3 2 -29 -6 -58 -18 -30 -11 -76 -30 -104 -40
l-50 -19 24 20 c13 11 55 39 92 63 38 23 69 45 69 48 0 4 -39 -2 -87 -13 -49
-10 -99 -21 -113 -24 -26 -5 31 26 130 71 l55 25 -120 -6 c-66 -3 -117 -3
-114 0 3 3 55 19 115 35 60 16 103 30 97 31 -7 2 -16 3 -20 4 -5 1 -53 6 -108
10 -63 5 -93 11 -80 16 21 8 119 19 173 20 60 0 33 16 -69 40 -55 13 -102 27
-105 31 -2 4 43 5 101 2 l106 -6 57 -56z m780 -251 c39 -25 71 -48 72 -52 0
-3 -36 8 -80 25 -68 27 -80 35 -80 55 0 28 -3 29 88 -28z m-8 -106 c29 -32 13
-29 -49 10 -27 17 -39 31 -35 41 5 13 10 12 33 -4 14 -11 37 -31 51 -47z m-55
-93 c-9 -8 -55 42 -48 52 3 6 16 -2 29 -18 13 -16 21 -31 19 -34z"/>
<path d="M2562 2348 c-23 -23 -8 -78 22 -78 5 0 2 6 -8 13 -11 8 -17 23 -14
38 4 31 46 39 65 13 7 -10 13 -13 13 -8 0 17 -23 34 -45 34 -12 0 -26 -5 -33
-12z"/>
<path d="M2830 2183 c0 -166 2 -181 23 -217 74 -131 328 -108 367 33 5 20 10
109 10 199 l0 162 -60 0 -60 0 0 -168 c0 -198 -5 -212 -73 -212 -24 0 -53 7
-65 16 -21 15 -22 21 -22 190 l0 174 -60 0 -60 0 0 -177z"/>
<path d="M3670 2320 l0 -40 50 0 c33 0 50 4 51 13 7 69 9 67 -48 67 l-53 0 0
-40z"/>
<path d="M5120 2320 l0 -40 55 0 55 0 0 40 0 40 -55 0 -55 0 0 -40z"/>
<path d="M2580 2313 c0 -16 4 -23 8 -17 5 9 11 8 20 -2 10 -10 10 -14 1 -14
-7 0 -9 -3 -6 -6 8 -9 37 15 37 30 0 6 -5 4 -10 -4 -9 -15 -12 -11 -14 20 -1
8 -9 16 -19 18 -13 3 -17 -3 -17 -25z"/>
<path d="M5320 2285 c0 -52 -1 -55 -25 -55 -21 0 -25 -5 -25 -29 0 -23 5 -30
23 -33 21 -3 22 -8 27 -126 6 -152 15 -162 130 -152 32 3 34 5 35 43 1 28 -3
33 -30 37 l-30 5 -3 93 c-3 99 -4 97 56 95 7 -1 12 12 12 33 0 32 -2 34 -35
34 l-35 0 0 55 0 55 -50 0 -50 0 0 -55z"/>
<path d="M3437 2231 c-30 -15 -37 -16 -37 -4 0 11 -12 13 -52 11 l-53 -3 -1
-172 -2 -173 54 0 54 0 0 116 c0 129 8 154 48 154 47 0 52 -14 52 -147 l0
-123 53 0 52 0 -2 151 c-2 169 -6 181 -72 199 -48 13 -51 13 -94 -9z"/>
<path d="M4240 2228 c-60 -30 -91 -87 -91 -163 0 -67 6 -91 37 -132 62 -82
238 -70 297 21 16 24 16 25 -15 40 -41 21 -47 20 -74 -9 -17 -18 -33 -25 -62
-25 -41 0 -64 17 -76 58 l-7 22 127 0 127 0 -5 44 c-12 100 -80 166 -173 166
-22 0 -61 -10 -85 -22z m132 -75 c35 -32 23 -43 -47 -43 -69 0 -79 8 -48 42
20 22 70 23 95 1z"/>
<path d="M4843 2235 c-38 -16 -73 -68 -73 -108 0 -52 79 -106 155 -107 61 -1
55 -53 -6 -58 -24 -2 -46 5 -70 21 l-36 24 -33 -27 c-31 -25 -33 -30 -20 -46
43 -52 170 -70 246 -35 52 24 74 55 74 104 0 54 -41 92 -118 107 -77 16 -97
27 -81 46 15 19 63 18 101 -2 29 -15 31 -15 59 12 35 33 28 46 -38 68 -57 20
-117 20 -160 1z"/>
<path d="M3670 2064 l0 -175 51 3 51 3 0 155 c0 85 0 163 -1 173 -1 14 -10 17
-51 17 l-50 0 0 -176z"/>
<path d="M3810 2235 c0 -2 25 -81 56 -175 l55 -171 57 3 56 3 53 165 c29 91
53 169 53 173 0 4 -24 7 -52 5 l-53 -3 -25 -107 c-26 -107 -40 -142 -40 -99 0
13 -7 46 -14 74 -8 29 -20 71 -26 95 l-11 42 -54 0 c-30 0 -55 -2 -55 -5z"/>
<path d="M4548 2228 c-2 -7 -4 -85 -3 -173 l0 -160 53 -3 52 -3 0 110 c0 116
9 141 50 141 40 0 50 11 50 56 0 50 -8 53 -65 30 -31 -13 -35 -13 -35 0 0 18
-96 20 -102 2z"/>
<path d="M5120 2065 l0 -175 55 0 55 0 0 175 0 175 -55 0 -55 0 0 -175z"/>
<path d="M5520 2229 c0 -7 23 -86 51 -176 27 -90 49 -172 47 -181 -2 -11 -16
-19 -38 -22 -32 -5 -35 -8 -35 -40 l0 -35 58 -3 c89 -5 101 12 176 245 34 106
64 199 67 208 6 14 -2 16 -52 13 l-58 -3 -25 -113 c-14 -61 -28 -107 -32 -101
-4 6 -17 58 -30 115 l-23 104 -53 0 c-33 0 -53 -4 -53 -11z"/>
<path d="M2945 1731 c-46 -20 -101 -79 -122 -128 -18 -45 -20 -137 -4 -195 35
-125 178 -193 299 -143 39 17 112 82 112 100 0 6 -20 21 -45 33 l-44 21 -21
-29 c-41 -58 -140 -47 -175 20 -21 41 -21 139 -1 179 17 33 62 61 96 61 30 0
77 -27 90 -50 10 -19 11 -19 55 2 25 12 45 27 45 34 0 21 -87 92 -126 103 -57
16 -114 13 -159 -8z"/>
<path d="M3677 1734 c-4 -4 -7 -112 -7 -241 l0 -233 50 0 50 0 -2 238 -3 237
-40 3 c-23 2 -44 0 -48 -4z"/>
<path d="M3830 1500 l0 -240 49 0 c30 0 51 5 53 13 3 9 2 344 -2 460 0 4 -22
7 -50 7 l-50 0 0 -240z"/>
<path d="M3400 1620 c-87 -16 -136 -70 -147 -159 -15 -131 84 -224 217 -206
88 12 143 65 156 153 20 135 -89 238 -226 212z m90 -98 c34 -28 40 -117 10
-154 -30 -39 -90 -39 -119 -2 -31 39 -29 117 4 149 29 30 73 33 105 7z"/>
<path d="M4111 1620 c-45 -11 -81 -39 -109 -86 -19 -33 -22 -51 -20 -111 5
-105 50 -158 144 -169 63 -8 114 8 160 48 43 38 43 54 1 74 -33 16 -34 16 -64
-15 -18 -18 -42 -31 -56 -31 -33 0 -77 36 -77 63 0 21 3 22 107 21 60 0 114 1
121 4 27 9 4 111 -36 155 -37 41 -111 61 -171 47z m87 -86 c12 -8 22 -24 22
-35 0 -17 -7 -19 -65 -19 -45 0 -65 4 -65 13 0 17 12 32 35 45 28 16 47 15 73
-4z"/>
<path d="M4877 1619 c-88 -20 -131 -83 -131 -190 0 -50 5 -74 22 -101 45 -72
154 -98 239 -57 39 19 83 61 83 78 0 4 -16 15 -37 25 -36 17 -36 17 -57 -9
-13 -16 -35 -28 -58 -32 -30 -4 -41 -1 -62 20 -14 15 -26 34 -26 44 0 16 11
18 113 17 61 0 118 2 125 4 12 4 11 46 -4 97 -24 78 -115 124 -207 104z m88
-94 c39 -38 32 -45 -45 -45 -42 0 -70 4 -70 10 0 19 48 60 70 60 12 0 32 -11
45 -25z"/>
<path d="M4440 1597 c-51 -34 -72 -77 -73 -150 -1 -111 53 -172 148 -164 28 2
58 8 68 12 14 6 17 2 17 -20 0 -45 -17 -65 -55 -65 -32 0 -59 16 -67 41 -4 11
-24 13 -85 10 -26 -1 -31 -28 -12 -63 28 -51 166 -75 249 -42 65 26 70 45 70
264 l0 190 -51 0 c-31 0 -48 -4 -44 -10 9 -14 -5 -12 -35 5 -37 21 -92 18
-130 -8z m134 -70 c12 -9 20 -30 23 -63 5 -64 -12 -98 -53 -102 -53 -5 -83 43
-70 113 12 60 57 83 100 52z"/>
<path d="M1985 902 c-42 -26 -55 -45 -62 -86 -11 -67 36 -106 144 -121 67 -9
87 -30 54 -56 -30 -25 -64 -24 -117 2 -41 19 -44 19 -68 3 -32 -20 -32 -25 -3
-52 47 -44 152 -55 223 -23 47 21 74 68 67 115 -7 50 -39 74 -121 89 -80 15
-96 25 -86 50 11 29 53 32 100 8 44 -24 65 -21 93 13 10 12 6 19 -28 42 -55
36 -152 44 -196 16z"/>
<path d="M131 888 c-4 -13 -18 -50 -31 -83 -12 -33 -37 -102 -56 -152 l-34
-93 49 0 c44 0 49 3 55 25 6 23 10 25 71 25 61 0 66 -2 75 -25 8 -22 16 -25
55 -25 25 0 45 3 45 6 0 4 -28 82 -62 175 l-62 169 -48 0 c-41 0 -50 -3 -57
-22z m75 -130 c9 -29 19 -59 22 -65 3 -9 -8 -13 -37 -13 -23 0 -41 3 -41 7 0
11 32 123 36 123 1 0 10 -24 20 -52z"/>
<path d="M580 880 c0 -28 2 -30 40 -30 38 0 40 2 40 30 0 28 -2 30 -40 30 -38
0 -40 -2 -40 -30z"/>
<path d="M3260 778 c0 -86 5 -142 13 -157 49 -95 232 -92 273 4 10 24 14 74
14 160 l0 125 -45 0 -45 0 0 -129 c0 -137 -3 -147 -51 -156 -13 -3 -33 2 -46
10 -22 15 -23 21 -23 145 l0 130 -45 0 -45 0 0 -132z"/>
<path d="M3890 880 c0 -28 2 -30 40 -30 38 0 40 2 40 30 0 28 -2 30 -40 30
-38 0 -40 -2 -40 -30z"/>
<path d="M5005 893 c2 -10 4 -24 4 -30 1 -8 16 -13 39 -13 37 0 38 1 34 30 -4
27 -8 30 -42 30 -31 0 -38 -3 -35 -17z"/>
<path d="M2274 891 c-2 -2 -4 -20 -4 -39 0 -25 -5 -35 -20 -39 -11 -3 -20 -13
-20 -23 0 -10 9 -20 20 -23 18 -5 20 -14 20 -85 0 -89 14 -118 62 -126 47 -8
68 3 68 35 0 24 -4 29 -25 29 -26 0 -26 1 -23 73 3 64 5 72 23 72 15 0 20 7
20 25 0 18 -5 25 -20 25 -16 0 -21 8 -25 40 -5 38 -7 40 -38 40 -18 0 -35 -2
-38 -4z"/>
<path d="M2720 857 c0 -30 -4 -40 -20 -44 -26 -7 -28 -51 -2 -49 15 1 18 -11
22 -91 3 -51 10 -97 15 -102 9 -9 59 -16 97 -12 26 2 17 55 -11 59 -19 3 -21
9 -21 78 0 41 3 73 8 73 45 -7 61 34 17 45 -21 5 -25 12 -25 41 0 19 -3 35 -7
36 -70 7 -73 6 -73 -34z"/>
<path d="M5158 855 c-2 -32 -7 -39 -20 -37 -14 2 -18 -4 -18 -28 0 -24 4 -30
18 -28 15 3 18 -9 22 -92 6 -107 16 -120 84 -112 32 4 36 7 36 33 0 22 -5 29
-19 29 -23 0 -27 10 -30 83 -2 58 -2 58 39 61 9 1 15 11 15 26 0 15 -6 25 -15
26 -8 1 -20 2 -26 2 -7 1 -11 17 -9 37 1 19 -1 35 -4 36 -3 0 -20 1 -38 2 -31
2 -32 0 -35 -38z"/>
<path d="M1041 817 c-46 -16 -73 -55 -79 -115 -8 -88 48 -152 136 -152 85 0
142 56 142 140 0 106 -92 165 -199 127z m102 -75 c24 -21 23 -86 -3 -112 -11
-11 -23 -20 -27 -20 -67 1 -98 86 -49 135 26 26 46 25 79 -3z"/>
<path d="M1397 824 c-4 -4 -32 -6 -62 -5 -30 1 -55 -2 -56 -6 -1 -5 -2 -63 -3
-131 l-1 -123 39 3 38 3 1 75 c0 99 9 122 45 118 l27 -3 3 -97 3 -98 39 0 40
0 0 109 c0 89 -3 113 -17 129 -19 22 -83 39 -96 26z"/>
<path d="M1615 819 c-33 -10 -55 -34 -55 -61 0 -14 8 -18 34 -18 18 0 39 7 46
15 18 22 60 20 60 -3 0 -14 -14 -23 -58 -35 -67 -19 -95 -45 -95 -89 0 -62 86
-101 141 -62 12 8 22 10 22 5 0 -6 16 -11 35 -11 l35 0 0 110 c0 98 -2 111
-21 128 -32 30 -87 38 -144 21z m81 -173 c-7 -30 -53 -47 -66 -26 -13 21 -1
37 33 47 39 12 41 10 33 -21z"/>
<path d="M2493 819 c-32 -9 -63 -42 -63 -66 0 -20 77 -17 88 3 11 20 56 15 60
-8 2 -13 -9 -19 -52 -28 -97 -20 -136 -91 -81 -145 28 -29 75 -33 118 -11 15
8 27 11 27 5 0 -5 16 -9 35 -9 l35 0 0 103 c0 118 -10 140 -68 157 -43 12 -56
11 -99 -1z m87 -152 c0 -25 -32 -58 -53 -55 -36 5 -33 36 5 53 41 18 48 18 48
2z"/>
<path d="M2954 824 c-83 -19 -116 -176 -50 -242 52 -52 182 -36 215 26 9 17 6
22 -18 32 -26 10 -32 9 -50 -9 -25 -25 -63 -27 -85 -5 -36 35 -21 44 74 44 90
0 90 0 90 25 0 39 -26 92 -54 110 -26 18 -86 27 -122 19z m86 -73 c15 -30 14
-31 -40 -31 -37 0 -50 4 -50 15 0 34 73 47 90 16z"/>
<path d="M3747 824 c-4 -4 -36 -7 -72 -6 l-65 2 0 -130 0 -130 40 0 39 0 3 98
c3 93 4 97 27 100 36 6 43 -10 47 -105 l3 -88 36 -3 35 -3 0 114 c0 96 -3 116
-17 130 -21 19 -66 31 -76 21z"/>
<path d="M4323 811 c-42 -26 -63 -69 -63 -126 0 -86 47 -135 130 -135 45 0 72
11 108 43 28 26 28 31 -4 46 -23 10 -30 9 -49 -9 -27 -25 -67 -26 -88 -2 -32
36 -21 42 71 42 49 0 91 2 94 5 13 13 -15 92 -42 119 -38 39 -110 46 -157 17z
m105 -53 c26 -26 13 -38 -38 -38 -54 0 -59 4 -33 32 18 21 53 24 71 6z"/>
<path d="M4793 815 c-83 -36 -66 -135 26 -151 58 -10 71 -15 71 -29 0 -29 -57
-33 -91 -6 -24 19 -25 19 -53 -4 l-28 -22 27 -21 c34 -27 106 -38 154 -23 107
32 96 147 -16 166 -48 8 -68 19 -58 35 7 11 35 10 81 -5 13 -4 29 1 45 14 l24
20 -45 20 c-52 24 -92 26 -137 6z"/>
<path d="M390 690 l0 -130 40 0 39 0 3 87 c3 87 3 88 33 97 17 6 31 11 33 12
2 1 5 13 8 28 5 32 -16 44 -52 28 -15 -7 -24 -8 -24 -2 0 6 -18 10 -40 10
l-40 0 0 -130z"/>
<path d="M580 690 l0 -130 40 0 40 0 0 130 0 130 -40 0 -40 0 0 -130z"/>
<path d="M710 790 l0 -30 62 0 62 0 -67 -68 c-55 -55 -67 -73 -67 -100 l0 -32
120 0 120 0 0 30 0 30 -66 0 -66 0 66 71 c50 54 66 79 66 100 l0 29 -115 0
-115 0 0 -30z"/>
<path d="M3890 690 l0 -130 40 0 40 0 0 130 0 130 -40 0 -40 0 0 -130z"/>
<path d="M4003 806 c3 -8 22 -67 42 -131 l36 -115 44 0 44 0 36 115 c20 64 38
122 42 130 4 12 -4 15 -36 15 -44 0 -39 9 -72 -124 l-12 -48 -21 83 -21 84
-44 3 c-36 3 -43 1 -38 -12z"/>
<path d="M4560 690 l0 -130 40 0 40 0 0 74 c0 94 4 104 46 112 31 6 34 9 34
40 0 37 -14 43 -53 23 -16 -9 -22 -9 -25 0 -2 6 -21 11 -43 11 l-39 0 0 -130z"/>
<path d="M5007 813 c-2 -5 -3 -62 -3 -128 l1 -120 40 -3 40 -3 -2 108 c-1 59
-2 118 -3 131 0 18 -5 22 -34 22 -19 0 -37 -3 -39 -7z"/>
<path d="M5325 778 c7 -24 25 -83 40 -131 29 -96 28 -114 -6 -119 -17 -2 -23
-10 -24 -30 -1 -27 1 -28 46 -28 39 0 51 5 67 25 15 19 112 295 112 319 0 3
-18 6 -39 6 -43 0 -41 4 -61 -90 -19 -86 -24 -85 -44 5 l-19 85 -42 0 -43 0
13 -42z"/>
</g>
</svg>
